<?xml version="1.0" encoding="UTF-8"?>
<svg version="1.1" xmlns="http://www.w3.org/2000/svg" width="478" height="522">
<path d="M0 0 C1.14054268 -0.00427212 2.28108535 -0.00854425 3.45618993 -0.01294583 C7.25044296 -0.02113434 11.04357282 0.00624273 14.83772278 0.03364563 C17.56838167 0.03784773 20.29901919 0.0344822 23.02967834 0.03143311 C28.89440569 0.02882046 34.75885335 0.04441183 40.62351036 0.0726223 C49.10260792 0.11338217 57.58157123 0.12629223 66.06075612 0.13256226 C79.81998429 0.14348593 93.57906363 0.17670762 107.33821106 0.22407532 C120.69822957 0.27002093 134.05820755 0.3053883 147.41828918 0.32661438 C148.242797 0.327928 149.06730482 0.32924161 149.91679772 0.33059504 C154.05340822 0.33712057 158.19001902 0.34343903 162.32663 0.34965456 C196.6049301 0.40142752 230.88305351 0.48944006 265.16120911 0.60127258 C265.16120911 1.26127258 265.16120911 1.92127258 265.16120911 2.60127258 C265.82120911 2.60127258 266.48120911 2.60127258 267.16120911 2.60127258 C267.16120911 3.26127258 267.16120911 3.92127258 267.16120911 4.60127258 C267.82120911 4.60127258 268.48120911 4.60127258 269.16120911 4.60127258 C269.16120911 5.26127258 269.16120911 5.92127258 269.16120911 6.60127258 C269.82120911 6.60127258 270.48120911 6.60127258 271.16120911 6.60127258 C271.16120911 7.26127258 271.16120911 7.92127258 271.16120911 8.60127258 C271.99652161 8.94158508 271.99652161 8.94158508 272.84870911 9.28877258 C275.82280498 10.97677294 277.88129776 13.06803775 280.16120911 15.60127258 C280.16120911 16.26127258 280.16120911 16.92127258 280.16120911 17.60127258 C280.82120911 17.60127258 281.48120911 17.60127258 282.16120911 17.60127258 C282.16120911 18.26127258 282.16120911 18.92127258 282.16120911 19.60127258 C282.82120911 19.60127258 283.48120911 19.60127258 284.16120911 19.60127258 C284.16120911 20.26127258 284.16120911 20.92127258 284.16120911 21.60127258 C284.82120911 21.60127258 285.48120911 21.60127258 286.16120911 21.60127258 C286.16120911 22.26127258 286.16120911 22.92127258 286.16120911 23.60127258 C286.82120911 23.60127258 287.48120911 23.60127258 288.16120911 23.60127258 C288.16120911 24.26127258 288.16120911 24.92127258 288.16120911 25.60127258 C288.82120911 25.60127258 289.48120911 25.60127258 290.16120911 25.60127258 C290.16120911 26.26127258 290.16120911 26.92127258 290.16120911 27.60127258 C291.15120911 27.93127258 292.14120911 28.26127258 293.16120911 28.60127258 C293.16120911 29.26127258 293.16120911 29.92127258 293.16120911 30.60127258 C294.15120911 30.93127258 295.14120911 31.26127258 296.16120911 31.60127258 C297.84870911 33.03877258 297.84870911 33.03877258 299.16120911 34.60127258 C299.16120911 35.26127258 299.16120911 35.92127258 299.16120911 36.60127258 C299.82120911 36.60127258 300.48120911 36.60127258 301.16120911 36.60127258 C301.16120911 37.26127258 301.16120911 37.92127258 301.16120911 38.60127258 C301.82120911 38.60127258 302.48120911 38.60127258 303.16120911 38.60127258 C303.16120911 39.26127258 303.16120911 39.92127258 303.16120911 40.60127258 C303.82120911 40.60127258 304.48120911 40.60127258 305.16120911 40.60127258 C305.16120911 41.26127258 305.16120911 41.92127258 305.16120911 42.60127258 C305.82120911 42.60127258 306.48120911 42.60127258 307.16120911 42.60127258 C307.16120911 43.26127258 307.16120911 43.92127258 307.16120911 44.60127258 C307.82120911 44.60127258 308.48120911 44.60127258 309.16120911 44.60127258 C309.16120911 45.26127258 309.16120911 45.92127258 309.16120911 46.60127258 C310.15120911 46.93127258 311.14120911 47.26127258 312.16120911 47.60127258 C312.16120911 48.26127258 312.16120911 48.92127258 312.16120911 49.60127258 C312.82120911 49.60127258 313.48120911 49.60127258 314.16120911 49.60127258 C316.28620911 51.47627258 316.28620911 51.47627258 318.16120911 53.60127258 C318.16120911 54.26127258 318.16120911 54.92127258 318.16120911 55.60127258 C318.82120911 55.60127258 319.48120911 55.60127258 320.16120911 55.60127258 C320.16120911 56.26127258 320.16120911 56.92127258 320.16120911 57.60127258 C320.82120911 57.60127258 321.48120911 57.60127258 322.16120911 57.60127258 C322.16120911 58.26127258 322.16120911 58.92127258 322.16120911 59.60127258 C322.82120911 59.60127258 323.48120911 59.60127258 324.16120911 59.60127258 C324.16120911 60.26127258 324.16120911 60.92127258 324.16120911 61.60127258 C324.82120911 61.60127258 325.48120911 61.60127258 326.16120911 61.60127258 C326.16120911 62.26127258 326.16120911 62.92127258 326.16120911 63.60127258 C326.82120911 63.60127258 327.48120911 63.60127258 328.16120911 63.60127258 C328.16120911 64.26127258 328.16120911 64.92127258 328.16120911 65.60127258 C329.15120911 65.93127258 330.14120911 66.26127258 331.16120911 66.60127258 C331.16120911 67.26127258 331.16120911 67.92127258 331.16120911 68.60127258 C331.82120911 68.60127258 332.48120911 68.60127258 333.16120911 68.60127258 C333.16120911 69.26127258 333.16120911 69.92127258 333.16120911 70.60127258 C333.82120911 70.60127258 334.48120911 70.60127258 335.16120911 70.60127258 C335.16120911 71.26127258 335.16120911 71.92127258 335.16120911 72.60127258 C335.82120911 72.60127258 336.48120911 72.60127258 337.16120911 72.60127258 C337.16120911 73.26127258 337.16120911 73.92127258 337.16120911 74.60127258 C337.82120911 74.60127258 338.48120911 74.60127258 339.16120911 74.60127258 C339.16120911 75.26127258 339.16120911 75.92127258 339.16120911 76.60127258 C339.82120911 76.60127258 340.48120911 76.60127258 341.16120911 76.60127258 C341.16120911 77.26127258 341.16120911 77.92127258 341.16120911 78.60127258 C341.82120911 78.60127258 342.48120911 78.60127258 343.16120911 78.60127258 C343.16120911 79.26127258 343.16120911 79.92127258 343.16120911 80.60127258 C343.82120911 80.60127258 344.48120911 80.60127258 345.16120911 80.60127258 C345.16120911 81.26127258 345.16120911 81.92127258 345.16120911 82.60127258 C345.80058411 82.86939758 346.43995911 83.13752258 347.09870911 83.41377258 C349.16120911 84.60127258 349.16120911 84.60127258 350.16120911 87.60127258 C350.82120911 87.60127258 351.48120911 87.60127258 352.16120911 87.60127258 C352.16120911 88.26127258 352.16120911 88.92127258 352.16120911 89.60127258 C352.82120911 89.60127258 353.48120911 89.60127258 354.16120911 89.60127258 C354.16120911 90.26127258 354.16120911 90.92127258 354.16120911 91.60127258 C354.82120911 91.60127258 355.48120911 91.60127258 356.16120911 91.60127258 C356.16120911 92.26127258 356.16120911 92.92127258 356.16120911 93.60127258 C356.82120911 93.60127258 357.48120911 93.60127258 358.16120911 93.60127258 C358.16120911 94.26127258 358.16120911 94.92127258 358.16120911 95.60127258 C358.82120911 95.60127258 359.48120911 95.60127258 360.16120911 95.60127258 C360.16120911 96.26127258 360.16120911 96.92127258 360.16120911 97.60127258 C360.82120911 97.60127258 361.48120911 97.60127258 362.16120911 97.60127258 C362.16120911 98.26127258 362.16120911 98.92127258 362.16120911 99.60127258 C362.82120911 99.60127258 363.48120911 99.60127258 364.16120911 99.60127258 C364.15530132 100.2101255 364.14939354 100.81897842 364.14330673 101.44628143 C364.00305748 116.33145029 363.93029321 131.2158338 363.93061447 146.10160065 C363.92917957 153.30080886 363.90575975 160.49863521 363.82868958 167.69746399 C363.76149075 173.97965204 363.73747041 180.26035017 363.76311421 186.54286909 C363.7752199 189.86407161 363.76076115 193.17971356 363.7072525 196.50088501 C363.48242864 211.36572707 363.70048802 222.33610418 374.2066803 233.56680298 C374.71436699 234.08012743 375.22205368 234.59345188 375.74512482 235.12233162 C377.75421096 237.22059641 379.38668046 239.54013041 381.03620911 241.92549133 C381.56601379 242.66347961 382.09581848 243.4014679 382.64167786 244.16181946 C383.14312317 244.86371399 383.64456848 245.56560852 384.16120911 246.28877258 C388.22521114 251.98599566 388.22521114 251.98599566 392.53620911 257.49580383 C394.16120911 259.60127258 394.16120911 259.60127258 394.16120911 261.60127258 C394.82120911 261.60127258 395.48120911 261.60127258 396.16120911 261.60127258 C397.21013149 263.2375915 398.21027614 264.90613121 399.16120911 266.60127258 C399.49120911 266.93127258 399.82120911 267.26127258 400.16120911 267.60127258 C400.262227 269.53887067 400.29198228 271.48019802 400.29492188 273.42042542 C400.29918686 274.68511154 400.30345184 275.94979767 400.30784607 277.25280762 C400.3074965 278.66746524 400.30703494 280.08212284 400.30647278 281.4967804 C400.30946273 282.97648199 400.31286487 284.4561828 400.31665039 285.93588257 C400.32551357 289.96702639 400.32782954 293.99814902 400.32846618 298.02930164 C400.3294138 301.39153194 400.33309058 304.75375725 400.33663827 308.11598563 C400.34479244 316.04939763 400.34722172 323.98279828 400.34651184 331.91621399 C400.34591151 340.10328355 400.35645226 348.29028712 400.3722555 356.47733998 C400.38533013 363.50073789 400.39069574 370.52411423 400.39005643 377.54752421 C400.38980132 381.74457409 400.39265925 385.94156543 400.40323448 390.13860321 C400.4129136 394.08824216 400.41299593 398.03776661 400.40571785 401.98740959 C400.40467162 403.43661351 400.4070372 404.88582455 400.41307831 406.33501625 C400.4207957 408.31472479 400.41495519 410.2944723 400.40844727 412.27418518 C400.40899203 413.38180332 400.4095368 414.48942146 400.41009808 415.63060379 C400.15607646 418.66253444 399.444022 420.8591473 398.16120911 423.60127258 C397.50120911 423.60127258 396.84120911 423.60127258 396.16120911 423.60127258 C396.16120911 424.26127258 396.16120911 424.92127258 396.16120911 425.60127258 C389.71684579 430.35270446 384.0360597 430.08222325 376.22370911 429.85127258 C375.06290833 429.83322571 373.90210754 429.81517883 372.70613098 429.79658508 C369.85696163 429.74968518 367.0095238 429.68406317 364.16120911 429.60127258 C364.17009155 430.32630981 364.178974 431.05134705 364.18812561 431.7983551 C364.26877643 438.6816804 364.32942742 445.56493371 364.36845779 452.44861221 C364.38919956 455.98636021 364.41726571 459.52371293 364.46296692 463.06123352 C364.51535147 467.14232346 364.53426482 471.22300806 364.55183411 475.30439758 C364.57247925 476.55488892 364.59312439 477.80538025 364.61439514 479.09376526 C364.61751919 491.50561125 361.78012545 501.4742938 353.16120911 510.60127258 C342.55025877 521.11811249 331.84952471 522.90340288 317.32751465 522.86869812 C315.92189043 522.87243843 314.51626828 522.87704146 313.11064941 522.88242877 C309.26200025 522.89462703 305.41343822 522.89440206 301.56477416 522.89204001 C297.40855112 522.89163105 293.25235571 522.90267856 289.09614563 522.91215515 C280.95875739 522.92874834 272.82139812 522.93426392 264.68399438 522.93537991 C258.06814226 522.93633111 251.45229968 522.94044501 244.83645058 522.94678116 C226.06933603 522.96438842 207.30224433 522.97362075 188.53512146 522.97212021 C187.52396916 522.9720403 186.51281685 522.97196039 185.47102356 522.97187805 C184.45863335 522.97179629 183.44624314 522.97171453 182.40317444 522.97163029 C165.9957974 522.97081738 149.58851215 522.98995776 133.18116166 523.01815479 C116.32445376 523.04689495 99.46779061 523.06069448 82.61105758 523.05896723 C73.15117471 523.05830376 63.6913881 523.06377752 54.23152733 523.08532333 C46.17754878 523.10354995 38.12371014 523.10787025 30.06971987 523.09430449 C25.9629882 523.08778251 21.85652482 523.08762965 17.7498188 523.10501099 C13.98502152 523.12078094 10.22070438 523.11783859 6.45591853 523.10044272 C4.46021087 523.09593926 2.46448809 523.11099922 0.46883887 523.12692201 C-12.09195623 523.03103182 -21.84337007 519.63969804 -30.74504089 510.68330383 C-38.50784639 502.18040036 -42.0751686 493.66291774 -42.25285339 482.12471008 C-42.27226486 481.32462021 -42.29167633 480.52453033 -42.31167603 479.70019531 C-42.37154023 477.12566055 -42.41805211 474.5510936 -42.46379089 471.97627258 C-42.50157437 470.21250753 -42.5399057 468.44875414 -42.57878113 466.68501282 C-42.8325202 454.65736299 -42.9700289 442.63142332 -42.83879089 430.60127258 C-43.45286804 430.60240051 -44.06694519 430.60352844 -44.69963074 430.60469055 C-65.83183053 430.51341532 -65.83183053 430.51341532 -73.13175964 425.36689758 C-77.04668573 421.31759189 -78.21451108 417.94548305 -78.2668457 412.35493469 C-78.2854213 411.09631119 -78.30399689 409.83768768 -78.32313538 408.54092407 C-78.32846579 407.15348948 -78.3334278 405.76605344 -78.33805847 404.37861633 C-78.35359142 402.91129329 -78.37028893 401.44398219 -78.38806152 399.97668457 C-78.43162445 395.99484854 -78.45514095 392.0131497 -78.47228837 388.0311203 C-78.48332293 385.53859481 -78.49761021 383.04610746 -78.51280785 380.55360413 C-78.55919494 372.74158725 -78.59275887 364.92966197 -78.6088236 357.11752319 C-78.62752634 348.12516205 -78.68882638 339.1344354 -78.78732568 330.14260197 C-78.86097117 323.17672484 -78.89571847 316.2113083 -78.90168685 309.24504757 C-78.90611377 305.09186104 -78.92653509 300.94029161 -78.98778725 296.78752136 C-79.0444782 292.87313404 -79.05238537 288.96149467 -79.02474785 285.0468235 C-79.02272926 283.62024622 -79.03742419 282.19351803 -79.0712204 280.76733971 C-79.29922365 270.5470872 -76.96007149 264.90727495 -70.37533092 257.47624207 C-67.92994905 254.70459322 -65.87443831 251.86900292 -63.83879089 248.78877258 C-62.21379089 246.33174133 -62.21379089 246.33174133 -60.83879089 244.60127258 C-60.17879089 244.60127258 -59.51879089 244.60127258 -58.83879089 244.60127258 C-58.57074646 243.86682922 -58.30270203 243.13238586 -58.02653503 242.37568665 C-56.86747225 239.66826847 -55.56867636 237.58094808 -53.83488464 235.21064758 C-53.25931824 234.41916321 -52.68375183 233.62767883 -52.09074402 232.81221008 C-51.49197449 232.00010071 -50.89320496 231.18799133 -50.27629089 230.35127258 C-49.67365417 229.52369446 -49.07101746 228.69611633 -48.45011902 227.84346008 C-44.03341475 221.79589644 -44.03341475 221.79589644 -42.83879089 220.60127258 C-42.73759467 218.19750244 -42.70165253 215.82222425 -42.70748901 213.41783142 C-42.7053733 212.65703038 -42.70325759 211.89622933 -42.70107776 211.11237371 C-42.69504912 208.54306673 -42.69607996 205.97380847 -42.69694519 203.40449524 C-42.69391541 201.57000138 -42.69039446 199.73550828 -42.68641663 197.90101624 C-42.67851036 193.9389856 -42.6733761 189.97696404 -42.67012596 186.01492691 C-42.66422511 179.74447616 -42.6476913 173.47408247 -42.62878418 167.20365906 C-42.62244606 165.05787853 -42.61612044 162.91209797 -42.60980701 160.76631737 C-42.6066412 159.69135907 -42.60347539 158.61640077 -42.60021365 157.50886798 C-42.55813565 142.90540251 -42.52518849 128.30196255 -42.51286316 113.69844055 C-42.50447135 103.85681403 -42.48193416 94.01532767 -42.44350749 84.17377126 C-42.423775 78.96598144 -42.41133273 73.75840102 -42.41634178 68.55057144 C-42.42100321 63.64376749 -42.40710124 58.7373593 -42.37932968 53.83063507 C-42.37244147 52.03565393 -42.37226566 50.24063166 -42.37952995 48.44565201 C-42.42877854 34.90149353 -40.96123343 23.35272272 -31.83879089 12.60127258 C-22.71948081 3.76694094 -12.56891736 -0.17504764 0 0 Z " fill="#F26E22" transform="translate(77.83879089355469,-0.6012725830078125)"/>
<path d="M0 0 C1.14054268 -0.00427212 2.28108535 -0.00854425 3.45618993 -0.01294583 C7.25044296 -0.02113434 11.04357282 0.00624273 14.83772278 0.03364563 C17.56838167 0.03784773 20.29901919 0.0344822 23.02967834 0.03143311 C28.89440569 0.02882046 34.75885335 0.04441183 40.62351036 0.0726223 C49.10260792 0.11338217 57.58157123 0.12629223 66.06075612 0.13256226 C79.81998429 0.14348593 93.57906363 0.17670762 107.33821106 0.22407532 C120.69822957 0.27002093 134.05820755 0.3053883 147.41828918 0.32661438 C148.242797 0.327928 149.06730482 0.32924161 149.91679772 0.33059504 C154.05340822 0.33712057 158.19001902 0.34343903 162.32663 0.34965456 C196.6049301 0.40142752 230.88305351 0.48944006 265.16120911 0.60127258 C265.16120911 1.26127258 265.16120911 1.92127258 265.16120911 2.60127258 C265.82120911 2.60127258 266.48120911 2.60127258 267.16120911 2.60127258 C267.16120911 3.26127258 267.16120911 3.92127258 267.16120911 4.60127258 C267.82120911 4.60127258 268.48120911 4.60127258 269.16120911 4.60127258 C269.16120911 5.26127258 269.16120911 5.92127258 269.16120911 6.60127258 C269.82120911 6.60127258 270.48120911 6.60127258 271.16120911 6.60127258 C271.16120911 7.26127258 271.16120911 7.92127258 271.16120911 8.60127258 C271.99652161 8.94158508 271.99652161 8.94158508 272.84870911 9.28877258 C275.82280498 10.97677294 277.88129776 13.06803775 280.16120911 15.60127258 C280.16120911 16.26127258 280.16120911 16.92127258 280.16120911 17.60127258 C280.82120911 17.60127258 281.48120911 17.60127258 282.16120911 17.60127258 C282.16120911 18.26127258 282.16120911 18.92127258 282.16120911 19.60127258 C282.82120911 19.60127258 283.48120911 19.60127258 284.16120911 19.60127258 C284.16120911 20.26127258 284.16120911 20.92127258 284.16120911 21.60127258 C284.82120911 21.60127258 285.48120911 21.60127258 286.16120911 21.60127258 C286.16120911 22.26127258 286.16120911 22.92127258 286.16120911 23.60127258 C286.82120911 23.60127258 287.48120911 23.60127258 288.16120911 23.60127258 C288.16120911 24.26127258 288.16120911 24.92127258 288.16120911 25.60127258 C288.82120911 25.60127258 289.48120911 25.60127258 290.16120911 25.60127258 C290.16120911 26.26127258 290.16120911 26.92127258 290.16120911 27.60127258 C291.15120911 27.93127258 292.14120911 28.26127258 293.16120911 28.60127258 C293.16120911 29.26127258 293.16120911 29.92127258 293.16120911 30.60127258 C294.15120911 30.93127258 295.14120911 31.26127258 296.16120911 31.60127258 C297.84870911 33.03877258 297.84870911 33.03877258 299.16120911 34.60127258 C299.16120911 35.26127258 299.16120911 35.92127258 299.16120911 36.60127258 C299.82120911 36.60127258 300.48120911 36.60127258 301.16120911 36.60127258 C301.16120911 37.26127258 301.16120911 37.92127258 301.16120911 38.60127258 C301.82120911 38.60127258 302.48120911 38.60127258 303.16120911 38.60127258 C303.16120911 39.26127258 303.16120911 39.92127258 303.16120911 40.60127258 C303.82120911 40.60127258 304.48120911 40.60127258 305.16120911 40.60127258 C305.16120911 41.26127258 305.16120911 41.92127258 305.16120911 42.60127258 C305.82120911 42.60127258 306.48120911 42.60127258 307.16120911 42.60127258 C307.16120911 43.26127258 307.16120911 43.92127258 307.16120911 44.60127258 C307.82120911 44.60127258 308.48120911 44.60127258 309.16120911 44.60127258 C309.16120911 45.26127258 309.16120911 45.92127258 309.16120911 46.60127258 C310.15120911 46.93127258 311.14120911 47.26127258 312.16120911 47.60127258 C312.16120911 48.26127258 312.16120911 48.92127258 312.16120911 49.60127258 C312.82120911 49.60127258 313.48120911 49.60127258 314.16120911 49.60127258 C316.28620911 51.47627258 316.28620911 51.47627258 318.16120911 53.60127258 C318.16120911 54.26127258 318.16120911 54.92127258 318.16120911 55.60127258 C318.82120911 55.60127258 319.48120911 55.60127258 320.16120911 55.60127258 C320.16120911 56.26127258 320.16120911 56.92127258 320.16120911 57.60127258 C320.82120911 57.60127258 321.48120911 57.60127258 322.16120911 57.60127258 C322.16120911 58.26127258 322.16120911 58.92127258 322.16120911 59.60127258 C322.82120911 59.60127258 323.48120911 59.60127258 324.16120911 59.60127258 C324.16120911 60.26127258 324.16120911 60.92127258 324.16120911 61.60127258 C324.82120911 61.60127258 325.48120911 61.60127258 326.16120911 61.60127258 C326.16120911 62.26127258 326.16120911 62.92127258 326.16120911 63.60127258 C326.82120911 63.60127258 327.48120911 63.60127258 328.16120911 63.60127258 C328.16120911 64.26127258 328.16120911 64.92127258 328.16120911 65.60127258 C329.15120911 65.93127258 330.14120911 66.26127258 331.16120911 66.60127258 C331.16120911 67.26127258 331.16120911 67.92127258 331.16120911 68.60127258 C331.82120911 68.60127258 332.48120911 68.60127258 333.16120911 68.60127258 C333.16120911 69.26127258 333.16120911 69.92127258 333.16120911 70.60127258 C333.82120911 70.60127258 334.48120911 70.60127258 335.16120911 70.60127258 C335.16120911 71.26127258 335.16120911 71.92127258 335.16120911 72.60127258 C335.82120911 72.60127258 336.48120911 72.60127258 337.16120911 72.60127258 C337.16120911 73.26127258 337.16120911 73.92127258 337.16120911 74.60127258 C337.82120911 74.60127258 338.48120911 74.60127258 339.16120911 74.60127258 C339.16120911 75.26127258 339.16120911 75.92127258 339.16120911 76.60127258 C339.82120911 76.60127258 340.48120911 76.60127258 341.16120911 76.60127258 C341.16120911 77.26127258 341.16120911 77.92127258 341.16120911 78.60127258 C341.82120911 78.60127258 342.48120911 78.60127258 343.16120911 78.60127258 C343.16120911 79.26127258 343.16120911 79.92127258 343.16120911 80.60127258 C343.82120911 80.60127258 344.48120911 80.60127258 345.16120911 80.60127258 C345.16120911 81.26127258 345.16120911 81.92127258 345.16120911 82.60127258 C345.80058411 82.86939758 346.43995911 83.13752258 347.09870911 83.41377258 C349.16120911 84.60127258 349.16120911 84.60127258 350.16120911 87.60127258 C350.82120911 87.60127258 351.48120911 87.60127258 352.16120911 87.60127258 C352.16120911 88.26127258 352.16120911 88.92127258 352.16120911 89.60127258 C352.82120911 89.60127258 353.48120911 89.60127258 354.16120911 89.60127258 C354.16120911 90.26127258 354.16120911 90.92127258 354.16120911 91.60127258 C354.82120911 91.60127258 355.48120911 91.60127258 356.16120911 91.60127258 C356.16120911 92.26127258 356.16120911 92.92127258 356.16120911 93.60127258 C356.82120911 93.60127258 357.48120911 93.60127258 358.16120911 93.60127258 C358.16120911 94.26127258 358.16120911 94.92127258 358.16120911 95.60127258 C358.82120911 95.60127258 359.48120911 95.60127258 360.16120911 95.60127258 C360.16120911 96.26127258 360.16120911 96.92127258 360.16120911 97.60127258 C360.82120911 97.60127258 361.48120911 97.60127258 362.16120911 97.60127258 C362.16120911 98.26127258 362.16120911 98.92127258 362.16120911 99.60127258 C362.82120911 99.60127258 363.48120911 99.60127258 364.16120911 99.60127258 C364.49120911 139.86127258 364.82120911 180.12127258 365.16120911 221.60127258 C364.50120911 221.60127258 363.84120911 221.60127258 363.16120911 221.60127258 C363.16120911 236.12127258 363.16120911 250.64127258 363.16120911 265.60127258 C229.51120911 265.60127258 95.86120911 265.60127258 -41.83879089 265.60127258 C-42.16879089 252.07127258 -42.49879089 238.54127258 -42.83879089 224.60127258 C-43.49879089 224.60127258 -44.15879089 224.60127258 -44.83879089 224.60127258 C-44.51397924 224.09687181 -44.18916759 223.59247103 -43.85451317 223.07278538 C-42.48372703 219.73731113 -42.5640148 216.60406526 -42.5872345 213.05706787 C-42.58426436 212.29370355 -42.58129422 211.53033923 -42.57823408 210.74384266 C-42.57059065 208.18379197 -42.57708961 205.62397048 -42.5834198 203.06391907 C-42.58066996 201.22898198 -42.5769901 199.39404608 -42.57244873 197.55911255 C-42.56433239 193.60530426 -42.56216943 189.65155255 -42.5643959 185.69773674 C-42.56722855 179.43962866 -42.55287732 173.18163354 -42.53541565 166.92355347 C-42.48838873 149.12693489 -42.46445887 131.33032356 -42.45793152 113.53364563 C-42.45417493 103.70628983 -42.4360947 93.87906145 -42.40283716 84.05176026 C-42.382667 77.83774138 -42.38023195 71.62405218 -42.39111733 65.41001403 C-42.39373426 61.53184796 -42.37967197 57.65387162 -42.3610363 53.77575493 C-42.35573719 51.98560276 -42.35717182 50.19541514 -42.3660717 48.40527725 C-42.42788819 34.87290352 -40.95288011 23.34287773 -31.83879089 12.60127258 C-22.71948081 3.76694094 -12.56891736 -0.17504764 0 0 Z " fill="#E4E9F5" transform="translate(77.83879089355469,-0.6012725830078125)"/>
<path d="M0 0 C134.31 0 268.62 0 407 0 C407 69.35157895 407 69.35157895 396 81 C385.38904967 91.51683991 374.68831561 93.3021303 360.16630554 93.26742554 C358.76068132 93.27116584 357.35505918 93.27576888 355.9494403 93.28115618 C352.10079114 93.29335445 348.25222912 93.29312948 344.40356505 93.29076743 C340.24734201 93.29035846 336.09114661 93.30140598 331.93493652 93.31088257 C323.79754828 93.32747576 315.66018902 93.33299134 307.52278527 93.33410732 C300.90693315 93.33505853 294.29109057 93.33917243 287.67524147 93.34550858 C268.90812692 93.36311584 250.14103522 93.37234817 231.37391236 93.37084763 C230.36276005 93.37076772 229.35160774 93.3706878 228.30981445 93.37060547 C227.29742424 93.37052371 226.28503403 93.37044195 225.24196533 93.37035771 C208.83458829 93.36954479 192.42730305 93.38868518 176.01995256 93.4168822 C159.16324465 93.44562237 142.3065815 93.4594219 125.44984847 93.45769465 C115.9899656 93.45703118 106.53017899 93.46250493 97.07031822 93.48405075 C89.01633967 93.50227737 80.96250103 93.50659767 72.90851077 93.4930319 C68.80177909 93.48650992 64.69531571 93.48635707 60.5886097 93.5037384 C56.82381241 93.51950836 53.05949528 93.516566 49.29470942 93.49917014 C47.29900177 93.49466667 45.30327898 93.50972664 43.30762976 93.52564943 C30.74683466 93.42975924 20.99542082 90.03842546 12.09375 81.08203125 C4.34295781 72.59228642 0.76389344 64.08112434 0.5859375 52.55859375 C0.56657135 51.75502945 0.5472052 50.95146515 0.5272522 50.12355042 C0.46796166 47.56163945 0.42154525 44.9996705 0.375 42.4375 C0.33671942 40.7766745 0.29766228 39.11586671 0.2578125 37.45507812 C-0.01427753 24.96323045 0 12.50029226 0 0 Z " fill="#E4E9F5" transform="translate(35,429)"/>
<path d="M0 0 C1.32 0.33 2.64 0.66 4 1 C4 1.66 4 2.32 4 3 C4.66 3 5.32 3 6 3 C6 3.66 6 4.32 6 5 C6.66 5 7.32 5 8 5 C8 5.66 8 6.32 8 7 C8.556875 7.226875 9.11375 7.45375 9.6875 7.6875 C12.66159588 9.37550036 14.72008865 11.46676517 17 14 C17 14.66 17 15.32 17 16 C17.66 16 18.32 16 19 16 C19 16.66 19 17.32 19 18 C19.66 18 20.32 18 21 18 C21 18.66 21 19.32 21 20 C21.66 20 22.32 20 23 20 C23 20.66 23 21.32 23 22 C23.66 22 24.32 22 25 22 C25 22.66 25 23.32 25 24 C25.66 24 26.32 24 27 24 C27 24.66 27 25.32 27 26 C27.99 26.33 28.98 26.66 30 27 C30 27.66 30 28.32 30 29 C30.99 29.33 31.98 29.66 33 30 C34.6875 31.4375 34.6875 31.4375 36 33 C36 33.66 36 34.32 36 35 C36.66 35 37.32 35 38 35 C38 35.66 38 36.32 38 37 C38.66 37 39.32 37 40 37 C40 37.66 40 38.32 40 39 C40.66 39 41.32 39 42 39 C42 39.66 42 40.32 42 41 C42.66 41 43.32 41 44 41 C44 41.66 44 42.32 44 43 C44.66 43 45.32 43 46 43 C46 43.66 46 44.32 46 45 C46.99 45.33 47.98 45.66 49 46 C49 46.66 49 47.32 49 48 C49.66 48 50.32 48 51 48 C53.125 49.875 53.125 49.875 55 52 C55 52.66 55 53.32 55 54 C55.66 54 56.32 54 57 54 C57 54.66 57 55.32 57 56 C57.66 56 58.32 56 59 56 C59 56.66 59 57.32 59 58 C59.66 58 60.32 58 61 58 C61 58.66 61 59.32 61 60 C61.66 60 62.32 60 63 60 C63 60.66 63 61.32 63 62 C63.66 62 64.32 62 65 62 C65 62.66 65 63.32 65 64 C66.485 64.495 66.485 64.495 68 65 C68 65.66 68 66.32 68 67 C68.66 67 69.32 67 70 67 C70 67.66 70 68.32 70 69 C70.66 69 71.32 69 72 69 C72 69.66 72 70.32 72 71 C72.66 71 73.32 71 74 71 C74 71.66 74 72.32 74 73 C74.66 73 75.32 73 76 73 C76 73.66 76 74.32 76 75 C76.66 75 77.32 75 78 75 C78 75.66 78 76.32 78 77 C78.66 77 79.32 77 80 77 C80 77.66 80 78.32 80 79 C80.66 79 81.32 79 82 79 C82 79.66 82 80.32 82 81 C82.639375 81.268125 83.27875 81.53625 83.9375 81.8125 C86 83 86 83 87 86 C87.66 86 88.32 86 89 86 C89 86.66 89 87.32 89 88 C89.66 88 90.32 88 91 88 C91 88.66 91 89.32 91 90 C91.66 90 92.32 90 93 90 C93 90.66 93 91.32 93 92 C93.66 92 94.32 92 95 92 C95 92.66 95 93.32 95 94 C95.66 94 96.32 94 97 94 C97 94.66 97 95.32 97 96 C97.66 96 98.32 96 99 96 C99.33 97.32 99.66 98.64 100 100 C91.06315094 100.06983357 82.12639734 100.12297929 73.18933392 100.15543652 C69.03847734 100.1710226 64.88780889 100.19213005 60.73706055 100.22631836 C56.72348522 100.25916598 52.71008964 100.27690593 48.69639015 100.28463173 C47.17314644 100.29013005 45.64991138 100.30086553 44.12674522 100.31719017 C35.33804269 100.40754754 27.36479475 99.95234204 19 97 C19 96.34 19 95.68 19 95 C18.278125 94.9175 17.55625 94.835 16.8125 94.75 C11.30847053 93.28225881 8.27533907 89.41064573 5.3125 84.75 C4.73113281 83.85796875 4.14976562 82.9659375 3.55078125 82.046875 C-0.88357475 73.33453828 -0.26165166 64.20949655 -0.1953125 54.6875 C-0.19157696 53.10709818 -0.18873255 51.52669403 -0.18673706 49.94628906 C-0.17914315 45.81005326 -0.15953168 41.6739605 -0.1373291 37.53778076 C-0.11677872 33.30775893 -0.10771578 29.07771373 -0.09765625 24.84765625 C-0.0762813 16.56503892 -0.04219731 8.28253731 0 0 Z " fill="#A8ACB7" transform="translate(341,1)"/>
<path d="M0 0 C42.82435345 0 42.82435345 0 53.42578125 10.3125 C61.88386641 19.37923148 65.67247118 28.73004375 65.30078125 41.171875 C64.0600034 52.83840962 60.74076881 61.87768182 52 70 C36.7517544 81.97725098 19.02596465 79 0 79 C0 52.93 0 26.86 0 0 Z " fill="#F26E21" transform="translate(315,308)"/>
<path d="M0 0 C6.83319693 6.42013667 6.83319693 6.42013667 7.2734375 10.58984375 C7 13 7 13 5.4375 15.375 C3 17 3 17 -0.625 17 C-1.73875 16.67 -2.8525 16.34 -4 16 C-4.710001 14.68922893 -5.37341343 13.35263132 -6 12 C-13.01294913 4.41843337 -22.94841392 -0.10292903 -33.2175293 -0.53295898 C-45.29824988 -0.68931444 -54.36946262 2.19532228 -63.3125 10.8125 C-64.87956474 12.53745539 -65.95713671 13.91427341 -67 16 C-67.66 16 -68.32 16 -69 16 C-69.13341797 16.57403564 -69.26683594 17.14807129 -69.40429688 17.73950195 C-69.98702552 19.95076611 -70.73411765 22.0260428 -71.53125 24.16796875 C-73.13190474 28.94162872 -73.53969931 33.29955929 -73.5 38.3125 C-73.49572998 39.1377417 -73.49145996 39.9629834 -73.48706055 40.81323242 C-73.21518767 50.64772929 -69.99541749 59.00458251 -63 66 C-53.23316712 74.7387452 -42.95741458 76.70173099 -30.2734375 76.37890625 C-22.30148215 75.88442525 -14.14966536 72.44999316 -8.32763672 66.89599609 C-6.63403281 64.47736279 -6.52219655 62.71970074 -6.32421875 59.79296875 C-6.25678467 58.89473389 -6.18935059 57.99649902 -6.11987305 57.07104492 C-6.08031494 56.3876001 -6.04075684 55.70415527 -6 55 C-7.3317627 55.0314209 -7.3317627 55.0314209 -8.69042969 55.06347656 C-11.99294455 55.13175677 -15.2947067 55.1818487 -18.59765625 55.21972656 C-20.02551121 55.23980982 -21.45328425 55.26708252 -22.88085938 55.30175781 C-24.93640368 55.35042669 -26.99085855 55.37299967 -29.046875 55.390625 C-30.28276367 55.41157227 -31.51865234 55.43251953 -32.79199219 55.45410156 C-36 55 -36 55 -38.40722656 53.16699219 C-40.54702578 50.25576321 -40.5262632 48.53348151 -40 45 C-38.71946716 43.34165955 -38.71946716 43.34165955 -37 42 C-33.96322957 41.68928253 -31.13594581 41.55587476 -28.09765625 41.56640625 C-27.22354599 41.5611644 -26.34943573 41.55592255 -25.44883728 41.55052185 C-23.60042381 41.54409942 -21.75196948 41.54544152 -19.90356445 41.55395508 C-17.07624416 41.56245866 -14.25094839 41.53371852 -11.42382812 41.50195312 C-9.62760477 41.50034085 -7.83137784 41.50091915 -6.03515625 41.50390625 C-5.19026138 41.49267227 -4.34536652 41.48143829 -3.47486877 41.46986389 C0.11611498 41.51245991 2.38920038 41.64651546 5.53369141 43.46630859 C7.73635014 47.27236792 7.55361114 50.70933815 7.49609375 55.03515625 C7.49754898 55.91022324 7.49900421 56.78529022 7.50050354 57.68687439 C7.49884598 59.53355241 7.48730062 61.38024444 7.46655273 63.22680664 C7.43756561 66.05609638 7.44595258 68.88351589 7.45898438 71.71289062 C7.45274777 73.50782162 7.44435744 75.30274669 7.43359375 77.09765625 C7.43652939 77.94457535 7.43946503 78.79149445 7.44248962 79.66407776 C7.34738105 85.57036196 7.34738105 85.57036196 5.60243225 87.72850037 C2.70519731 90.0274014 -0.43565814 89.1752955 -4 89 C-5.35439668 86.29120665 -5.06501451 83.99066732 -5 81 C-5.78503906 81.40992188 -6.57007813 81.81984375 -7.37890625 82.2421875 C-8.42949219 82.78101563 -9.48007813 83.31984375 -10.5625 83.875 C-11.59503906 84.40867187 -12.62757813 84.94234375 -13.69140625 85.4921875 C-25.07714528 90.68096585 -39.73848873 90.85987791 -51.88671875 88.125 C-54.80716638 86.96445611 -57.34229394 85.67212251 -60 84 C-61.32837891 83.18595703 -61.32837891 83.18595703 -62.68359375 82.35546875 C-75.65458413 73.8173577 -82.96347596 62.76189475 -86.55859375 47.65234375 C-88.93291793 33.38538695 -85.91929919 19.97816552 -78 8 C-69.93596082 -3.11285936 -58.77735953 -10.14567319 -45.375 -12.6875 C-27.24499039 -14.43497081 -14.1201624 -11.57729275 0 0 Z " fill="#FDF8F1" transform="translate(173,309)"/>
<path d="M0 0 C0.88845108 -0.00945648 1.77690216 -0.01891296 2.692276 -0.02865601 C3.65161545 -0.02258331 4.6109549 -0.01651062 5.59936523 -0.01025391 C6.59242172 -0.01312408 7.58547821 -0.01599426 8.60862732 -0.01895142 C10.71435108 -0.02099456 12.82009371 -0.0154473 14.92578125 -0.00292969 C18.12145547 0.01300161 21.31584191 -0.00270847 24.51147461 -0.02197266 C26.56160758 -0.01998795 28.61173975 -0.01613958 30.66186523 -0.01025391 C32.07961998 -0.01936295 32.07961998 -0.01936295 33.52601624 -0.02865601 C45.9765267 0.10065309 57.77630453 4.52833796 66.90795898 13.13818359 C78.2220029 25.30830036 82.12947788 39.51004915 81.87670898 55.72802734 C81.31484612 69.52457 74.59276543 82.08796824 64.59545898 91.38818359 C54.42569664 99.10685052 44.73106074 103.02566045 31.97045898 102.88427734 C30.36738892 102.88646019 30.36738892 102.88646019 28.73193359 102.88868713 C26.49321745 102.88703837 24.25448874 102.87559303 22.01586914 102.85473633 C18.57707309 102.82552743 15.13979713 102.83419941 11.70092773 102.84716797 C9.51993063 102.84093741 7.33893838 102.83255183 5.15795898 102.82177734 C3.61277588 102.8261808 3.61277588 102.8261808 2.03637695 102.83067322 C1.08778809 102.81798904 0.13919922 102.80530487 -0.83813477 102.79223633 C-1.67401123 102.78683334 -2.5098877 102.78143036 -3.37109375 102.77586365 C-4.04213135 102.64792923 -4.71316895 102.51999481 -5.40454102 102.38818359 C-8.06372414 98.39940891 -7.69220548 94.91405376 -7.67919922 90.28271484 C-7.68431015 89.35075287 -7.68942108 88.41879089 -7.69468689 87.45858765 C-7.70860722 84.37255463 -7.70762445 81.2867443 -7.70532227 78.20068359 C-7.7092075 76.0598136 -7.71354181 73.91894438 -7.7183075 71.77807617 C-7.72577471 67.28903709 -7.72547453 62.80007665 -7.72021484 58.31103516 C-7.71441581 52.55045816 -7.7313594 46.79020223 -7.75455952 41.02967834 C-7.76926975 36.60825713 -7.77017232 32.18691376 -7.76704979 27.76547241 C-7.76756424 25.64113732 -7.77282511 23.51679801 -7.78286171 21.39248657 C-7.79515794 18.42599425 -7.78847572 15.46013407 -7.77685547 12.49365234 C-7.78449921 11.61148041 -7.79214294 10.72930847 -7.80001831 9.82040405 C-7.793004 9.01285675 -7.78598969 8.20530945 -7.77876282 7.37329102 C-7.77893056 6.67201584 -7.7790983 5.97074066 -7.77927113 5.24821472 C-6.90757299 0.92140557 -4.01634682 0.01228423 0 0 Z M4.59545898 12.38818359 C4.59545898 38.45818359 4.59545898 64.52818359 4.59545898 91.38818359 C34.88327514 92.76134987 34.88327514 92.76134987 59.78295898 79.30615234 C66.85408599 71.46812002 69.61208646 61.6551572 70.03295898 51.20068359 C69.52632429 41.36216469 66.82709608 33.03409294 60.59545898 25.38818359 C60.08112305 24.75009766 59.56678711 24.11201172 59.03686523 23.45458984 C53.56812665 17.35635617 46.43988619 14.34929039 38.59545898 12.38818359 C27.37545898 12.38818359 16.15545898 12.38818359 4.59545898 12.38818359 Z " fill="#FEFAF5" transform="translate(310.404541015625,295.61181640625)"/>
<path d="M0 0 C1.96223511 -0.00922989 1.96223511 -0.00922989 3.96411133 -0.01864624 C5.38884178 -0.00484944 6.81356526 0.0096846 8.23828125 0.02490234 C9.70271645 0.02728779 11.16715474 0.02819188 12.6315918 0.02767944 C15.69827481 0.03080499 18.76448949 0.04735028 21.83105469 0.07421875 C25.75866802 0.10819852 29.68576702 0.11584716 33.61351013 0.11432838 C36.63672785 0.11487269 39.65983351 0.12584946 42.68301392 0.14033127 C44.13106438 0.14668801 45.57912751 0.15063553 47.02719116 0.15211868 C49.05202814 0.15646343 51.07681718 0.17556322 53.1015625 0.1953125 C54.25309814 0.2029361 55.40463379 0.21055969 56.59106445 0.21841431 C59.50045126 0.48129227 61.18785935 0.78739196 63.55078125 2.48583984 C64.55078125 5.86083984 64.55078125 5.86083984 64.55078125 9.48583984 C62.47846299 12.27518627 61.28307946 13.35637884 57.82989502 13.96685791 C56.7906488 13.95797546 55.75140259 13.94909302 54.68066406 13.93994141 C53.49974182 13.93963928 52.31881958 13.93933716 51.10211182 13.93902588 C49.83220398 13.91838074 48.56229614 13.8977356 47.25390625 13.87646484 C45.94999939 13.87080505 44.64609253 13.86514526 43.30267334 13.85931396 C39.84345602 13.84407323 36.38491519 13.80480647 32.92596436 13.76049805 C29.393446 13.71951073 25.86081461 13.70107621 22.328125 13.68115234 C15.40174715 13.6404329 8.47722463 13.56214093 1.55078125 13.48583984 C1.55078125 24.37583984 1.55078125 35.26583984 1.55078125 46.48583984 C5.84722656 46.43943359 10.14367187 46.39302734 14.5703125 46.34521484 C17.99457075 46.3194938 21.41880174 46.29780173 24.8431015 46.27883911 C28.45883035 46.25770939 32.07418464 46.22947145 35.68969727 46.18408203 C39.17157899 46.14064342 42.65309735 46.11670721 46.13522911 46.10633087 C48.1112556 46.0953348 50.08713573 46.06410532 52.0629425 46.03265381 C53.26396103 46.03235168 54.46497955 46.03204956 55.70239258 46.03173828 C56.7616243 46.02285583 57.82085602 46.01397339 58.91218567 46.00482178 C61.55078125 46.48583984 61.55078125 46.48583984 63.42802429 48.31890869 C65.0115115 51.37505343 64.46889715 53.23712206 63.55078125 56.48583984 C61.55078125 58.48583984 61.55078125 58.48583984 59.03244019 58.72634888 C57.44026169 58.71968704 57.44026169 58.71968704 55.81591797 58.71289062 C54.61482391 58.71273956 53.41372986 58.7125885 52.17623901 58.71243286 C50.87413483 58.70211029 49.57203064 58.69178772 48.23046875 58.68115234 C46.88811452 58.67742261 45.54575758 58.67457545 44.20339966 58.6725769 C40.66876725 58.66493729 37.13429897 58.64528614 33.59973145 58.62316895 C29.99359396 58.60271749 26.38742919 58.59346719 22.78125 58.58349609 C15.70428208 58.56310137 8.62776499 58.52395645 1.55078125 58.48583984 C1.55078125 69.70583984 1.55078125 80.92583984 1.55078125 92.48583984 C5.93101562 92.45103516 10.31125 92.41623047 14.82421875 92.38037109 C18.31135805 92.36108552 21.79848234 92.34481457 25.28564453 92.33058929 C28.96983496 92.31473058 32.65381922 92.29353018 36.33789062 92.25952148 C39.88458938 92.22698488 43.43108789 92.20899904 46.97792435 92.20120811 C48.3327716 92.19565426 49.68760758 92.18480915 51.04236984 92.16864967 C52.9361787 92.14695382 54.830188 92.14561511 56.72412109 92.14526367 C57.80333832 92.13860184 58.88255554 92.13194 59.99447632 92.12507629 C60.83805695 92.24412827 61.68163757 92.36318024 62.55078125 92.48583984 C64.86645509 95.9593506 65.14665702 97.39983457 64.55078125 101.48583984 C60.74131112 104.4767534 57.75257372 104.86749426 52.98803711 104.88989258 C51.6799559 104.90257675 50.37187469 104.91526093 49.02415466 104.92832947 C47.60464316 104.92627826 46.18513275 104.92329044 44.765625 104.91943359 C43.30261493 104.92399705 41.839607 104.92930311 40.37660217 104.93531799 C37.31600208 104.94423757 34.25566311 104.94183814 31.19506836 104.93188477 C27.27512011 104.92037797 23.35607042 104.94063737 19.4362402 104.9698019 C16.41730541 104.98815292 13.39858662 104.98787405 10.37961006 104.98216438 C8.93432921 104.98201113 7.48903376 104.98805894 6.04380608 105.00045586 C4.02396464 105.01534564 2.00397499 105.0020692 -0.01586914 104.98754883 C-1.16438858 104.98738266 -2.31290802 104.98721649 -3.49623108 104.98704529 C-6.44921875 104.48583984 -6.44921875 104.48583984 -8.81895447 103.02967834 C-11.27258344 99.20107465 -11.007981 95.7435086 -10.96679688 91.28271484 C-10.97380615 90.35221313 -10.98081543 89.42171143 -10.98803711 88.4630127 C-11.00564336 85.38698491 -10.99398481 82.311877 -10.98046875 79.23583984 C-10.9831629 77.09879378 -10.98704468 74.9617489 -10.99206543 72.82470703 C-10.99796405 68.34574717 -10.98938558 63.86710637 -10.97070312 59.38818359 C-10.94791362 53.64441532 -10.96103472 47.90139465 -10.98499298 42.15765381 C-10.99944096 37.74473427 -10.99484951 33.33199224 -10.98448181 28.91906738 C-10.98181177 26.80114656 -10.98509399 24.68320967 -10.99440002 22.56530762 C-11.00454893 19.6060919 -10.98908735 16.64809005 -10.96679688 13.68896484 C-10.9748938 12.81195923 -10.98299072 11.93495361 -10.99133301 11.03137207 C-10.939292 7.30579351 -10.85879713 5.12557782 -8.81994629 1.94100952 C-5.70925987 0.03164774 -3.64462963 -0.00902041 0 0 Z " fill="#FEFCF8" transform="translate(214.44921875,294.51416015625)"/>
<path d="M0 0 C1.36694737 -0.00668677 1.36694737 -0.00668677 2.76150984 -0.01350862 C4.27300803 -0.01323207 4.27300803 -0.01323207 5.81504154 -0.01294994 C7.41314052 -0.01846498 7.41314052 -0.01846498 9.04352432 -0.02409142 C12.63721376 -0.03516304 16.23087432 -0.03897794 19.82457829 -0.04278088 C22.39140255 -0.04904275 24.95822591 -0.0556893 27.52504826 -0.0626936 C35.24397819 -0.08246547 42.96290946 -0.09252412 50.68185839 -0.10142139 C54.31410422 -0.1058022 57.94634858 -0.11116946 61.57859325 -0.11641026 C73.64755895 -0.13342156 85.71652373 -0.14791749 97.78549957 -0.155159 C100.91815473 -0.15706898 104.05080988 -0.1589893 107.183465 -0.16094494 C107.96209753 -0.16142868 108.74073005 -0.16191242 109.54295749 -0.16241082 C122.16674184 -0.17071772 134.79043164 -0.19606617 147.41417467 -0.22852562 C160.36532651 -0.26155642 173.31643023 -0.27960405 186.26762444 -0.28280324 C193.54312762 -0.2849718 200.81849282 -0.29377097 208.09395504 -0.31926441 C214.93358906 -0.34317504 221.77297041 -0.34682222 228.61263752 -0.33650303 C231.12858944 -0.33600495 233.64455318 -0.34240463 236.1604681 -0.35605907 C239.58404141 -0.37360613 243.00670397 -0.36675651 246.43027592 -0.35352612 C247.43571066 -0.36449536 248.4411454 -0.37546461 249.47704786 -0.38676625 C250.84790685 -0.37389492 250.84790685 -0.37389492 252.24645996 -0.36076355 C253.43240908 -0.36222876 253.43240908 -0.36222876 254.64231676 -0.36372358 C256.68615055 0.13422108 256.68615055 0.13422108 258.47534996 2.00500137 C259.68615055 4.13422108 259.68615055 4.13422108 259.49865055 6.69672108 C258.68615055 9.13422108 258.68615055 9.13422108 256.68615055 12.13422108 C254.75780189 12.50681657 254.75780189 12.50681657 252.34830379 12.50336456 C250.97335619 12.51232428 250.97335619 12.51232428 249.57063186 12.521465 C248.55702909 12.51272648 247.54342632 12.50398795 246.49910831 12.49498463 C244.89170896 12.49882954 244.89170896 12.49882954 243.2518369 12.50275213 C239.63718089 12.50771969 236.02293647 12.49114792 232.40831852 12.47479725 C229.82677565 12.47395162 227.24523206 12.47442486 224.66368961 12.47612476 C219.09353541 12.4777001 213.52348639 12.46826381 207.95335865 12.45141125 C199.89984304 12.42706096 191.84637844 12.41922006 183.79283001 12.41544727 C170.72745618 12.40887654 157.66213844 12.38889854 144.59679508 12.36053944 C131.90278753 12.33301494 119.20879519 12.3117735 106.51476383 12.299016 C105.73269644 12.29822783 104.95062904 12.29743966 104.14486264 12.2966276 C100.22157733 12.29271258 96.29829192 12.28892143 92.37500644 12.28519189 C59.81201363 12.25407662 27.24908959 12.20122393 -5.31384945 12.13422108 C-7.60420805 8.14371167 -7.33217356 5.63181922 -6.31384945 1.13422108 C-3.97472076 -0.03534327 -2.60654225 0.00589773 0 0 Z " fill="#A8ADB8" transform="translate(113.31384944915771,179.86577892303467)"/>
<path d="M0 0 C1.3656339 -0.00483667 1.3656339 -0.00483667 2.75885636 -0.00977105 C3.76040015 -0.00822245 4.76194394 -0.00667385 5.79383755 -0.00507832 C6.8567133 -0.00734387 7.91958906 -0.00960943 9.01467317 -0.01194364 C12.59377707 -0.01829881 16.17284324 -0.01745331 19.75195217 -0.01662922 C22.31069392 -0.01961971 24.86943522 -0.02302198 27.42817593 -0.02680683 C33.66689305 -0.03474038 39.90559624 -0.03786189 46.14431793 -0.03841921 C51.21288107 -0.03889399 56.28144109 -0.04094684 61.35000324 -0.04411983 C75.70990644 -0.05292688 90.06980215 -0.05753898 104.42970807 -0.05678936 C105.20410526 -0.0567494 105.97850246 -0.05670945 106.77636623 -0.05666828 C107.93937431 -0.05660696 107.93937431 -0.05660696 109.12587749 -0.0565444 C121.70174244 -0.05613763 134.2775775 -0.06571489 146.8534338 -0.07980665 C159.75602215 -0.09415089 172.65859591 -0.10107795 185.56119245 -0.10021287 C192.80921531 -0.09988029 200.05720681 -0.10265432 207.30522251 -0.11339092 C214.11691059 -0.12341636 220.92852119 -0.12318067 227.74021626 -0.11587429 C230.24690631 -0.1148232 232.75360041 -0.11722213 235.26028347 -0.12323475 C238.66860196 -0.13088368 242.07668666 -0.12635737 245.48499966 -0.11860371 C246.48877417 -0.12374727 247.49254869 -0.12889083 248.52674061 -0.13419026 C249.43455546 -0.12959147 250.34237031 -0.12499267 251.2776947 -0.12025452 C252.06512733 -0.12047188 252.85255996 -0.12068925 253.66385418 -0.12091321 C255.57592678 0.12863445 255.57592678 0.12863445 257.57592678 2.12863445 C257.7773908 5.82214145 257.74945868 8.60803877 256.57592678 12.12863445 C223.10533015 12.1743733 189.63474127 12.20963401 156.16412035 12.23076511 C152.21610265 12.23326664 148.26808501 12.23585528 144.32006741 12.23849773 C143.53406034 12.23902235 142.74805328 12.23954698 141.93822782 12.24008749 C129.19727902 12.24879936 116.45634819 12.26457361 103.71541007 12.28294004 C90.65019816 12.3016174 77.58499569 12.31274658 64.51977098 12.31681144 C56.4523781 12.31956101 48.38503602 12.32825735 40.31765877 12.34446739 C34.14033666 12.35625033 27.96305359 12.35755129 21.78572178 12.35484982 C19.24516835 12.35540251 16.7046131 12.35941322 14.16407108 12.3670454 C10.7096193 12.37691879 7.25538924 12.3746313 3.80093288 12.36914349 C2.27469231 12.37788201 2.27469231 12.37788201 0.71761858 12.38679707 C-0.20249655 12.38281497 -1.12261168 12.37883288 -2.07060909 12.37473011 C-2.86878123 12.37548955 -3.66695336 12.37624899 -4.48931253 12.37703145 C-6.42407322 12.12863445 -6.42407322 12.12863445 -8.42407322 10.12863445 C-8.7627829 3.80605381 -8.7627829 3.80605381 -7.42407322 1.12863445 C-4.61017364 0.19066793 -2.91010477 0.0026028 0 0 Z " fill="#A9ADB8" transform="translate(114.42407321929932,138.87136554718018)"/>
<path d="M0 0 C0.9098059 -0.00782324 1.8196118 -0.01564648 2.75698757 -0.02370679 C3.75784925 -0.01701463 4.75871092 -0.01032246 5.78990173 -0.00342751 C7.38315702 -0.01044746 7.38315702 -0.01044746 9.00859928 -0.01760924 C12.58548346 -0.0296228 16.16198899 -0.02007701 19.73887634 -0.01066017 C22.29599736 -0.01472304 24.85311663 -0.0200633 27.41023254 -0.02659035 C33.64531801 -0.03887789 39.88026211 -0.03704066 46.11534953 -0.02835242 C51.18152808 -0.02158451 56.24767626 -0.02065528 61.31385803 -0.02392387 C62.39433996 -0.02461342 62.39433996 -0.02461342 63.4966498 -0.0253169 C64.95984802 -0.02627605 66.42304622 -0.02724869 67.88624442 -0.02823468 C81.61516767 -0.03679472 95.34403088 -0.02694483 109.07294428 -0.01083358 C120.85973036 0.00257017 132.64642781 0.00024225 144.43321228 -0.01358986 C158.11212213 -0.02963486 171.79097932 -0.03597068 185.46989727 -0.02675307 C186.92779222 -0.02579739 188.38568718 -0.02485428 189.84358215 -0.02392387 C190.91962451 -0.02322963 190.91962451 -0.02322963 192.01740509 -0.02252137 C197.07904481 -0.01992823 202.14065121 -0.02430943 207.20228577 -0.03136253 C214.01155831 -0.04064206 220.82063714 -0.03406042 227.62990189 -0.01667976 C230.13455552 -0.01270026 232.6392232 -0.01387379 235.14387131 -0.02046776 C238.55195366 -0.02861547 241.9594912 -0.01844352 245.36753845 -0.00342751 C246.36840013 -0.01011967 247.3692618 -0.01681184 248.40045261 -0.02370679 C249.76516146 -0.01197193 249.76516146 -0.01197193 251.15744019 0 C251.94449309 0.00048706 252.731546 0.00097411 253.542449 0.00147593 C256.14664281 0.48240431 257.03592453 1.2459216 258.57872009 3.37752342 C258.76622009 7.06502342 258.76622009 7.06502342 258.57872009 10.37752342 C255.60746842 12.07969605 253.48172981 12.62778489 250.06842041 12.6292057 C248.71210022 12.63702895 248.71210022 12.63702895 247.32837963 12.64501023 C246.33889482 12.64054879 245.34941 12.63608735 244.3299408 12.63149071 C243.27578885 12.63461069 242.22163691 12.63773067 241.13554096 12.6409452 C237.59180475 12.64894313 234.04823893 12.64259448 230.50450134 12.63631248 C227.96856078 12.63902155 225.43262101 12.642582 222.89668274 12.6469326 C216.71690405 12.65511942 210.53718879 12.653902 204.35740924 12.64810732 C199.33560458 12.64359314 194.31381355 12.64297687 189.29200745 12.64515495 C188.5776611 12.64546142 187.86331475 12.64576789 187.12732154 12.64608364 C185.6762046 12.64672308 184.22508766 12.64737151 182.77397072 12.64802882 C169.16234128 12.65373383 155.55073876 12.64717154 141.93911374 12.63642809 C130.25614351 12.62749242 118.57321303 12.62904441 106.89024353 12.63826561 C93.32778742 12.64896522 79.76535491 12.65318449 66.20289516 12.64704108 C64.75707436 12.64640397 63.31125355 12.64577523 61.86543274 12.64515495 C60.79833626 12.64469213 60.79833626 12.64469213 59.70968229 12.64421995 C54.69309156 12.64249208 49.67651578 12.64541009 44.65992737 12.65011406 C37.90977139 12.65630435 31.15970221 12.65190597 24.40954971 12.64032555 C21.92788951 12.63767447 19.446223 12.63845163 16.96456528 12.64285088 C13.58545695 12.64829005 10.20659207 12.64149183 6.82749939 12.63149071 C5.83801457 12.63595215 4.84852976 12.64041359 3.82906055 12.64501023 C2.9248471 12.63979474 2.02063364 12.63457924 1.08901978 12.6292057 C0.30896419 12.628881 -0.4710914 12.62855629 -1.27478504 12.62822175 C-3.68965542 12.3461787 -5.3242166 11.57889044 -7.42127991 10.37752342 C-7.78876647 3.88526083 -7.78876647 3.88526083 -6.18589115 1.67064989 C-3.96278972 0.04153679 -2.74133265 0.00169644 0 0 Z " fill="#A8ACB7" transform="translate(113.42127990722656,220.6224765777588)"/>
<path d="M0 0 C4.49704142 1.12426036 4.49704142 1.12426036 6.59375 4.25390625 C7.06111572 4.93622314 7.52848145 5.61854004 8.01000977 6.3215332 C8.50170654 7.06105225 8.99340332 7.80057129 9.5 8.5625 C10.55903633 10.11085569 11.62029633 11.65769241 12.68359375 13.203125 C13.22741699 13.99654297 13.77124023 14.78996094 14.33154297 15.60742188 C16.98408465 19.41118373 19.76572648 23.1141123 22.5625 26.8125 C23.06265625 27.47515869 23.5628125 28.13781738 24.078125 28.82055664 C24.78388672 29.75436157 24.78388672 29.75436157 25.50390625 30.70703125 C25.93848145 31.28275879 26.37305664 31.85848633 26.82080078 32.45166016 C27.81249813 33.75380189 28.82394712 35.04086738 29.83984375 36.32421875 C31 38 31 38 31 40 C31.66 40 32.32 40 33 40 C35.04169485 42.90548882 36 44.40142046 36 48 C35.15308594 47.51917969 34.30617188 47.03835938 33.43359375 46.54296875 C27.34558622 43.93382267 20.57192287 44.42423888 14.0625 44.3125 C9.421875 44.209375 4.78125 44.10625 0 44 C0 29.48 0 14.96 0 0 Z " fill="#F5944D" transform="translate(441,221)"/>
<path d="M0 0 C0.33 0 0.66 0 1 0 C1 14.19 1 28.38 1 43 C-14.875 43.3125 -14.875 43.3125 -19.88232422 43.38793945 C-21.82389404 43.43760864 -21.82389404 43.43760864 -23.8046875 43.48828125 C-24.82574585 43.49764709 -24.82574585 43.49764709 -25.86743164 43.50720215 C-28.04238705 43.53953996 -28.04238705 43.53953996 -31 44 C-31.66 44.99 -32.32 45.98 -33 47 C-33.66 47 -34.32 47 -35 47 C-33.2449216 43.04862237 -30.71500276 39.66793458 -28.1875 36.1875 C-27.76146484 35.59646484 -27.33542969 35.00542969 -26.89648438 34.39648438 C-26.0370799 33.20423943 -25.1749415 32.01396034 -24.31005859 30.82568359 C-23.40098646 29.55881043 -22.5091787 28.27944001 -21.63134766 26.99072266 C-20.46767012 25.29410216 -19.23877698 23.64258883 -18 22 C-17.34 22 -16.68 22 -16 22 C-15.78214844 21.33613281 -15.56429688 20.67226562 -15.33984375 19.98828125 C-13.55468892 16.00681347 -11.13670514 12.69472864 -8.5625 9.1875 C-8.07201172 8.49462891 -7.58152344 7.80175781 -7.07617188 7.08789062 C-6.59857422 6.43369141 -6.12097656 5.77949219 -5.62890625 5.10546875 C-5.19650635 4.50887451 -4.76410645 3.91228027 -4.31860352 3.29760742 C-3 2 -3 2 0 2 C0 1.34 0 0.68 0 0 Z " fill="#F5944D" transform="translate(35,222)"/>
<path d="M0 0 C0.66 0.66 1.32 1.32 2 2 C1.34 2 0.68 2 0 2 C0 16.52 0 31.04 0 46 C-133.65 46 -267.3 46 -405 46 C-405.33 32.47 -405.66 18.94 -406 5 C-406.66 5 -407.32 5 -408 5 C-407.34 3.68 -406.68 2.36 -406 1 C-405.01 1 -404.02 1 -403 1 C-402.67 15.19 -402.34 29.38 -402 44 C-269.67 44.33 -137.34 44.66 -1 45 C-1 30.48 -1 15.96 -1 1 C-0.67 0.67 -0.34 0.34 0 0 Z " fill="#FDE5DA" transform="translate(441,219)"/>
<path d="M0 0 C0.91092911 -0.00095673 1.82185822 -0.00191345 2.76039124 -0.00289917 C4.68262806 -0.00357819 6.60486722 -0.00174331 8.52709961 0.00244141 C11.45887442 0.00778737 14.3904956 0.00249016 17.32226562 -0.00390625 C19.19401075 -0.0032453 21.06575579 -0.00196378 22.9375 0 C23.80954575 -0.00202423 24.68159149 -0.00404846 25.58006287 -0.00613403 C30.01235664 0.01081567 34.17174565 0.23891473 38.53515625 1.1328125 C38.53515625 1.7928125 38.53515625 2.4528125 38.53515625 3.1328125 C21.37515625 3.1328125 4.21515625 3.1328125 -13.46484375 3.1328125 C-13.46484375 36.1328125 -13.46484375 69.1328125 -13.46484375 103.1328125 C-14.78484375 102.8028125 -16.10484375 102.4728125 -17.46484375 102.1328125 C-17.3805645 89.40690855 -17.28572978 76.68113164 -17.17731667 63.95540905 C-17.12731313 58.04671272 -17.08098344 52.13803463 -17.04296875 46.22924805 C-17.00616725 40.52983237 -16.9598213 34.83056778 -16.90678024 29.1312809 C-16.88820896 26.95394852 -16.87311118 24.77658373 -16.86149979 22.59920311 C-16.84468415 19.55580457 -16.8156604 16.51275413 -16.78369141 13.46948242 C-16.78045113 12.1111026 -16.78045113 12.1111026 -16.77714539 10.72528076 C-16.7659819 9.89656967 -16.75481842 9.06785858 -16.74331665 8.21403503 C-16.73778589 7.49411471 -16.73225513 6.77419439 -16.72655678 6.03245831 C-16.46484375 4.1328125 -16.46484375 4.1328125 -14.46484375 1.1328125 C-9.86327236 -0.40417533 -4.80154957 -0.01111976 0 0 Z " fill="#E58852" transform="translate(317.46484375,293.8671875)"/>
<path d="M0 0 C1 3 1 3 1 6 C-5.5864025 7.2357306 -12.03445029 7.03367564 -18.71484375 6.87890625 C-19.92572159 6.85529526 -21.13659943 6.83168427 -22.38417053 6.80735779 C-26.23540936 6.73104686 -30.08643041 6.64688263 -33.9375 6.5625 C-36.55532804 6.50924671 -39.17316657 6.45650656 -41.79101562 6.40429688 C-48.19418781 6.27643638 -54.59700548 6.13794983 -61 6 C-61 15.9 -61 25.8 -61 36 C-41.2 36 -21.4 36 -1 36 C-1 36.66 -1 37.32 -1 38 C-21.13 38 -41.26 38 -62 38 C-62 26.78 -62 15.56 -62 4 C-57.69195312 3.96261719 -53.38390625 3.92523438 -48.9453125 3.88671875 C-45.51547644 3.84862652 -42.08570499 3.80755367 -38.65592957 3.7644577 C-35.0325225 3.71974916 -31.40923239 3.68032414 -27.78564453 3.65356445 C-24.29708471 3.62760019 -20.80896379 3.58724823 -17.3206749 3.53681374 C-15.33873123 3.51194982 -13.35661799 3.50208215 -11.37454224 3.49235535 C-10.17344818 3.47256119 -8.97235413 3.45276703 -7.73486328 3.43237305 C-6.67341095 3.42126999 -5.61195862 3.41016693 -4.51834106 3.39872742 C-3.68728851 3.26714737 -2.85623596 3.13556732 -2 3 C-1.34 2.01 -0.68 1.02 0 0 Z " fill="#E48A55" transform="translate(278,349)"/>
<path d="M0 0 C11.22 0 22.44 0 34 0 C34 0.33 34 0.66 34 1 C23.44 1 12.88 1 2 1 C2.33 25.75 2.66 50.5 3 76 C22.53976879 76.21804085 22.53976879 76.21804085 42 75 C30.42348394 82.71767737 11.42272631 79 0 79 C0 52.93 0 26.86 0 0 Z " fill="#E1834F" transform="translate(315,308)"/>
<path d="M0 0 C0.96647964 -0.00087616 0.96647964 -0.00087616 1.95248413 -0.00177002 C4.07402146 0.00100823 6.19413905 0.03208382 8.31542969 0.06347656 C9.78944125 0.07093998 11.26346275 0.07663244 12.73748779 0.08062744 C16.61095736 0.09587617 20.48382384 0.13515049 24.35705566 0.17944336 C28.31184735 0.22041305 32.2667368 0.23864202 36.22167969 0.25878906 C43.97716251 0.30164628 51.73214899 0.36988734 59.48730469 0.45410156 C59.48730469 0.78410156 59.48730469 1.11410156 59.48730469 1.45410156 C58.67964157 1.4599678 57.87197845 1.46583405 57.0398407 1.47187805 C49.4323189 1.52975625 41.82512646 1.60180428 34.21789837 1.68981647 C30.3068262 1.73456471 26.39585927 1.77381068 22.48461914 1.80053711 C18.71078381 1.82652617 14.9373525 1.86689647 11.16376686 1.91728783 C9.7233056 1.93398651 8.28277441 1.94548209 6.84222984 1.95171547 C4.82626695 1.96132304 2.81043027 1.99106258 0.79467773 2.02172852 C-0.35337845 2.03283157 -1.50143463 2.04393463 -2.6842804 2.05537415 C-5.89866944 2.50851312 -6.56333382 2.95826728 -8.51269531 5.45410156 C-8.79355122 8.54268502 -8.89122712 11.42731277 -8.85327148 14.51538086 C-8.85370956 15.44240814 -8.85414764 16.36943542 -8.854599 17.32455444 C-8.8525068 20.39268968 -8.82915521 23.46028038 -8.80566406 26.52832031 C-8.80006965 28.65395306 -8.79579882 30.77958967 -8.7928009 32.90522766 C-8.78134 38.50308896 -8.75186196 44.10071719 -8.71868896 49.69848633 C-8.688015 55.40931037 -8.67430128 61.12017203 -8.65917969 66.83105469 C-8.62699357 78.03883945 -8.57578207 89.24645113 -8.51269531 100.45410156 C-7.85269531 100.45410156 -7.19269531 100.45410156 -6.51269531 100.45410156 C-6.18269531 101.11410156 -5.85269531 101.77410156 -5.51269531 102.45410156 C15.93730469 102.78410156 37.38730469 103.11410156 59.48730469 103.45410156 C59.48730469 103.78410156 59.48730469 104.11410156 59.48730469 104.45410156 C50.95111234 104.54679716 42.4151304 104.61786375 33.87855911 104.66135025 C29.91462675 104.68222209 25.95103882 104.71053155 21.98730469 104.75585938 C18.16177742 104.79933275 14.33658134 104.82324171 10.51082611 104.83361053 C9.05154964 104.84099934 7.59229123 104.85542821 6.13315582 104.87702179 C4.08837269 104.9060778 2.04495649 104.91005698 0 104.90820312 C-1.7454007 104.92152679 -1.7454007 104.92152679 -3.52606201 104.93511963 C-6.51269531 104.45410156 -6.51269531 104.45410156 -8.88739014 103.00091553 C-11.33272602 99.16913324 -11.0714472 95.71064866 -11.03027344 91.25097656 C-11.03728271 90.32047485 -11.04429199 89.38997314 -11.05151367 88.43127441 C-11.06911993 85.35524663 -11.05746138 82.28013872 -11.04394531 79.20410156 C-11.04663946 77.06705549 -11.05052124 74.93001062 -11.05554199 72.79296875 C-11.06144062 68.31400889 -11.05286215 63.83536809 -11.03417969 59.35644531 C-11.01139019 53.61267704 -11.02451128 47.86965636 -11.04846954 42.12591553 C-11.06291752 37.71299599 -11.05832607 33.30025396 -11.04795837 28.8873291 C-11.04528833 26.76940828 -11.04857055 24.65147139 -11.05787659 22.53356934 C-11.06802549 19.57435362 -11.05256392 16.61635177 -11.03027344 13.65722656 C-11.03837036 12.78022095 -11.04646729 11.90321533 -11.05480957 10.99963379 C-11.00279671 7.27607056 -10.92029195 5.09279565 -8.88739014 1.9072876 C-5.75307386 -0.01074608 -3.66878302 -0.02800598 0 0 Z " fill="#FDCAA8" transform="translate(214.5126953125,294.5458984375)"/>
<path d="M0 0 C0.66 0 1.32 0 2 0 C3.15410254 2.30820508 3.1210297 3.60784276 3.11352539 6.17431641 C3.11344986 7.03505768 3.11337433 7.89579895 3.11329651 8.78262329 C3.10813522 9.71287323 3.10297394 10.64312317 3.09765625 11.6015625 C3.0962413 12.55316254 3.09482635 13.50476257 3.09336853 14.48519897 C3.08776012 17.53183097 3.07520619 20.57839013 3.0625 23.625 C3.05748608 25.68749894 3.05292299 27.74999903 3.04882812 29.8125 C3.03778796 34.87502817 3.02051767 39.93750173 3 45 C2.01 45.33 1.02 45.66 0 46 C0 46.66 0 47.32 0 48 C-3.63 48 -7.26 48 -11 48 C-11.12375 47.030625 -11.2475 46.06125 -11.375 45.0625 C-11.58125 44.051875 -11.7875 43.04125 -12 42 C-12.99 41.505 -12.99 41.505 -14 41 C-14.33 41.99 -14.66 42.98 -15 44 C-17.4134307 44.91808623 -19.62854961 45.59404354 -22.125 46.1875 C-23.18750977 46.44901855 -23.18750977 46.44901855 -24.27148438 46.71582031 C-31.55725699 48.36463776 -38.56077591 48.38478745 -46 48 C-46 47.34 -46 46.68 -46 46 C-44.35064453 45.96132813 -44.35064453 45.96132813 -42.66796875 45.921875 C-32.7691536 45.58324313 -24.00298906 44.75636142 -15.390625 39.3671875 C-13 38 -13 38 -10 38 C-9.505 41.96 -9.505 41.96 -9 46 C-3.41499433 45.80101292 -3.41499433 45.80101292 1 43 C1.18784672 40.02182706 1.25549078 37.13826856 1.23046875 34.16015625 C1.23001053 33.28225937 1.22955231 32.40436249 1.2290802 31.49986267 C1.22605626 29.64125214 1.21816573 27.78264419 1.20581055 25.92407227 C1.18759627 23.07754541 1.18530057 20.23134457 1.18554688 17.38476562 C1.18063004 15.58072635 1.17480099 13.77668929 1.16796875 11.97265625 C1.16685593 11.11946304 1.1657431 10.26626984 1.16459656 9.38722229 C1.13750963 6.01550908 1.07341299 3.22023897 0 0 Z " fill="#E37E43" transform="translate(178,352)"/>
<path d="M0 0 C3.35912758 -0.00982632 6.71767227 -0.0409965 10.07666016 -0.07226562 C12.22639616 -0.07878652 14.37613646 -0.08404056 16.52587891 -0.08789062 C17.52280762 -0.10023743 18.51973633 -0.11258423 19.546875 -0.12530518 C24.89893759 -0.1081334 28.72790644 0.19336218 33.33837891 3.24023438 C35.7388414 6.40448039 35.5144274 9.36716755 35.33837891 13.24023438 C34.34837891 13.24023438 33.35837891 13.24023438 32.33837891 13.24023438 C32.33837891 10.27023437 32.33837891 7.30023438 32.33837891 4.24023438 C28.65261359 3.31879304 25.77958496 3.08686517 22.00927734 3.03491211 C20.08773834 3.00499428 20.08773834 3.00499428 18.12738037 2.97447205 C16.73417277 2.95749028 15.34096391 2.94061138 13.94775391 2.92382812 C12.51856908 2.90324643 11.08939018 2.88224964 9.66021729 2.8608551 C5.9054444 2.80575988 2.15061773 2.75629549 -1.60424805 2.70800781 C-5.43852505 2.65770093 -9.27272429 2.6020629 -13.10693359 2.546875 C-20.62509684 2.43944702 -28.14332491 2.33796821 -35.66162109 2.24023438 C-35.66162109 1.91023438 -35.66162109 1.58023437 -35.66162109 1.24023438 C-23.78497048 0.09824874 -11.92186609 0.02112869 0 0 Z " fill="#E8722F" transform="translate(245.66162109375,292.759765625)"/>
<path d="M0 0 C0.33 0 0.66 0 1 0 C1 10.89 1 21.78 1 33 C21.13 33 41.26 33 62 33 C62.33 33.99 62.66 34.98 63 36 C62.29651932 35.83923477 61.59303864 35.67846954 60.86824036 35.51283264 C57.89641928 34.98148008 55.12565971 34.84069634 52.1081543 34.79467773 C50.94732834 34.77473251 49.78650238 34.75478729 48.59049988 34.73423767 C47.34762711 34.71752518 46.10475433 34.70081268 44.82421875 34.68359375 C43.54392288 34.66281265 42.26362701 34.64203156 40.9445343 34.62062073 C37.55310271 34.56562428 34.16161265 34.51611688 30.77008057 34.46777344 C27.3043503 34.41739384 23.83870311 34.36184416 20.37304688 34.30664062 C13.58209558 34.19884775 6.7910952 34.09965079 0 34 C0 22.78 0 11.56 0 0 Z " fill="#FEF1DC" transform="translate(215,354)"/>
<path d="M0 0 C0.99 0 1.98 0 3 0 C3.33 14.19 3.66 28.38 4 43 C4.99 43.33 5.98 43.66 7 44 C4.03 44.495 4.03 44.495 1 45 C0.67 31.47 0.34 17.94 0 4 C-0.66 4 -1.32 4 -2 4 C-1.34 2.68 -0.68 1.36 0 0 Z " fill="#EFD6C9" transform="translate(35,220)"/>
<path d="M0 0 C0.66 0.33 1.32 0.66 2 1 C1.67 1.66 1.34 2.32 1 3 C0.34 3 -0.32 3 -1 3 C-1 3.66 -1 4.32 -1 5 C-1.66 5.33 -2.32 5.66 -3 6 C-3.33 6.99 -3.66 7.98 -4 9 C-5.134375 8.814375 -6.26875 8.62875 -7.4375 8.4375 C-9.2009375 8.2209375 -9.2009375 8.2209375 -11 8 C-11.33 8.33 -11.66 8.66 -12 9 C-13.56547048 9.09326716 -15.13512772 9.11745582 -16.70336914 9.11352539 C-17.70433121 9.11344986 -18.70529327 9.11337433 -19.73658752 9.11329651 C-20.8251152 9.10813522 -21.91364288 9.10297394 -23.03515625 9.09765625 C-24.14354355 9.0962413 -25.25193085 9.09482635 -26.39390564 9.09336853 C-29.95013069 9.08775033 -33.50629383 9.07519475 -37.0625 9.0625 C-39.46679597 9.05748734 -41.87109292 9.05292403 -44.27539062 9.04882812 C-50.18361504 9.03777499 -56.0918031 9.02101917 -62 9 C-62 8.67 -62 8.34 -62 8 C-61.16340347 8.00119339 -61.16340347 8.00119339 -60.30990601 8.00241089 C-54.43554892 8.00487362 -48.56249012 7.96514877 -42.68847656 7.90234375 C-40.50461882 7.88432194 -38.32064837 7.87658979 -36.13671875 7.87988281 C-23.27937791 7.89165693 -12.27748656 7.75405969 -1 1 C-0.67 0.67 -0.34 0.34 0 0 Z " fill="#F19763" transform="translate(369,390)"/>
<path d="M0 0 C4.52597228 4.52597228 3.22128748 11.76343974 3.25 17.75 C3.270625 18.80960937 3.29125 19.86921875 3.3125 20.9609375 C3.34462989 27.43511005 2.59568 32.07839754 0 38 C-0.48370715 40.34002832 -0.7520238 42.61942853 -1 45 C-2.98 45.495 -2.98 45.495 -5 46 C-5.66 48.31 -6.32 50.62 -7 53 C-8.32 52.67 -9.64 52.34 -11 52 C-10.61328125 51.45472656 -10.2265625 50.90945313 -9.828125 50.34765625 C-2.59783104 39.87804743 1.3950419 29.80205853 1.1875 17 C1.18685547 16.24460937 1.18621094 15.48921875 1.18554688 14.7109375 C1.14705639 9.73283446 0.70003376 4.9282377 0 0 Z " fill="#E28048" transform="translate(390,330)"/>
<path d="M0 0 C8.55351574 -0.02315806 17.10701841 -0.04093279 25.66055775 -0.05181217 C29.63219624 -0.0570334 33.6038133 -0.0641173 37.57543945 -0.07543945 C41.40741372 -0.08629527 45.23936736 -0.09228257 49.07135582 -0.09487724 C50.53420016 -0.09672662 51.99704335 -0.10033792 53.45987892 -0.10573006 C55.50688757 -0.11297622 57.55381069 -0.11398943 59.60083008 -0.11352539 C60.76665115 -0.115746 61.93247223 -0.11796661 63.13362122 -0.12025452 C66 0 66 0 69 1 C69.625 4.375 69.625 4.375 70 8 C69.34 8.66 68.68 9.32 68 10 C67.71125 8.865625 67.4225 7.73125 67.125 6.5625 C66.75375 5.386875 66.3825 4.21125 66 3 C63.24406862 1.62203431 60.98220186 1.83701061 57.89794922 1.79467773 C56.61677216 1.77473251 55.33559509 1.75478729 54.01559448 1.73423767 C52.61196006 1.71725331 51.20832437 1.70037451 49.8046875 1.68359375 C48.37264403 1.6630246 46.94060663 1.64202814 45.50857544 1.62062073 C41.73733437 1.56539597 37.96603848 1.51598853 34.19470215 1.46777344 C30.34719964 1.41756133 26.49977687 1.36187376 22.65234375 1.30664062 C15.10163 1.19905413 7.55085 1.09761029 0 1 C0 0.67 0 0.34 0 0 Z " fill="#FEF3E0" transform="translate(209,296)"/>
<path d="M0 0 C0.68265427 0.65063416 1.36530853 1.30126831 2.06864929 1.97161865 C5.660737 4.45720445 7.56792724 4.48579212 11.90161133 4.45410156 C12.91220108 4.45497772 12.91220108 4.45497772 13.94320679 4.45587158 C16.15668356 4.45309826 18.36879155 4.4220454 20.58203125 4.390625 C22.12187464 4.38315985 23.66172756 4.37746821 25.20158386 4.37347412 C29.24435899 4.35823912 33.28655459 4.3189765 37.32910156 4.2746582 C41.45825359 4.23365895 45.58749974 4.21545322 49.71679688 4.1953125 C57.81146316 4.15247948 65.90565938 4.08425485 74 4 C74 4.66 74 5.32 74 6 C64.64692389 6.04627898 55.29388701 6.08184653 45.94072151 6.10362434 C41.59797251 6.114075 37.25530167 6.12825747 32.91259766 6.15087891 C28.72401025 6.17256174 24.53549816 6.18455896 20.34685898 6.18975449 C18.7464161 6.19345847 17.14597749 6.20069113 15.54556656 6.21146011 C13.30909468 6.22591463 11.07293663 6.22798051 8.83642578 6.22705078 C7.56179474 6.231492 6.2871637 6.23593323 4.97390747 6.24050903 C2 6 2 6 0 4 C0 2.68 0 1.36 0 0 Z " fill="#E07538" transform="translate(203,394)"/>
<path d="M0 0 C0 1.32 0 2.64 0 4 C-1.32 3.67 -2.64 3.34 -4 3 C-4.33 3.99 -4.66 4.98 -5 6 C-7.4134307 6.91808623 -9.62854961 7.59404354 -12.125 8.1875 C-12.83333984 8.3618457 -13.54167969 8.53619141 -14.27148438 8.71582031 C-21.55725699 10.36463776 -28.56077591 10.38478745 -36 10 C-36 9.34 -36 8.68 -36 8 C-34.35064453 7.96132813 -34.35064453 7.96132813 -32.66796875 7.921875 C-22.7691536 7.58324313 -14.00298906 6.75636142 -5.390625 1.3671875 C-3 0 -3 0 0 0 Z " fill="#E88144" transform="translate(168,390)"/>
<path d="M0 0 C0 0.99 0 1.98 0 3 C-0.99 3.66 -1.98 4.32 -3 5 C-2.81171228 7.44480079 -2.81171228 7.44480079 -2 10 C-0.03241727 11.36020151 -0.03241727 11.36020151 2 12 C-2.67639682 13.52762296 -5.70737766 12.03940678 -10 10 C-12.09813362 8.76059618 -14.02343282 7.4330112 -16 6 C-13.39417629 5.06934867 -12.35801776 4.85082593 -9.75 5.9375 C-9.1725 6.288125 -8.595 6.63875 -8 7 C-7.7525 6.401875 -7.505 5.80375 -7.25 5.1875 C-5.55294333 2.21765083 -3.56508774 0 0 0 Z " fill="#EE722E" transform="translate(128,372)"/>
<path d="M0 0 C1.43367789 0.04233077 2.86719443 0.0903537 4.30053711 0.14282227 C5.43041298 0.17823875 5.43041298 0.17823875 6.58311462 0.21437073 C8.99822015 0.2911835 11.41301906 0.37513123 13.82788086 0.45922852 C15.4613292 0.51243161 17.09479268 0.56517211 18.72827148 0.61743164 C22.74083687 0.74682227 26.7531413 0.88261399 30.76538086 1.02172852 C31.26038086 2.01172852 31.26038086 2.01172852 31.76538086 3.02172852 C18.56538086 3.02172852 5.36538086 3.02172852 -8.23461914 3.02172852 C-6.91461914 2.36172852 -5.59461914 1.70172852 -4.23461914 1.02172852 C-3.23461914 0.02172852 -3.23461914 0.02172852 0 0 Z " fill="#E6702D" transform="translate(144.234619140625,347.978271484375)"/>
<path d="M0 0 C4 1 4 1 5.265625 2.62890625 C6.17708333 4.41927083 7.08854167 6.20963542 8 8 C6.125 7.6875 6.125 7.6875 4 7 C3.34 6.01 2.68 5.02 2 4 C1.67 17.2 1.34 30.4 1 44 C0.67 44 0.34 44 0 44 C0 29.48 0 14.96 0 0 Z " fill="#E4B99C" transform="translate(441,221)"/>
<path d="M0 0 C0.33 0.99 0.66 1.98 1 3 C1.66 3 2.32 3 3 3 C3.33 2.01 3.66 1.02 4 0 C4.66 0 5.32 0 6 0 C5.67 1.65 5.34 3.3 5 5 C4.34 5 3.68 5 3 5 C3 5.66 3 6.32 3 7 C1.576875 7.2165625 1.576875 7.2165625 0.125 7.4375 C-2.8934494 7.82935399 -2.8934494 7.82935399 -5 9 C-5.33 7.68 -5.66 6.36 -6 5 C-4.02 3.35 -2.04 1.7 0 0 Z " fill="#ED7022" transform="translate(471,418)"/>
<path d="M0 0 C0.66 0.33 1.32 0.66 2 1 C1.09515208 2.15518918 0.1755794 3.29885406 -0.75 4.4375 C-1.26046875 5.07558594 -1.7709375 5.71367187 -2.296875 6.37109375 C-4.19667629 8.18810554 -5.43586908 8.60423197 -8 9 C-8.103125 9.5775 -8.20625 10.155 -8.3125 10.75 C-9.10896465 13.35661158 -10.19065277 14.9735311 -12 17 C-12.66 17 -13.32 17 -14 17 C-12.64966431 13.06036084 -10.92243529 10.44690063 -8.125 7.375 C-7.44695312 6.61960937 -6.76890625 5.86421875 -6.0703125 5.0859375 C-4.15512455 3.1562953 -2.21927871 1.56245183 0 0 Z " fill="#FDE7D2" transform="translate(107,305)"/>
<path d="M0 0 C2.31 0 4.62 0 7 0 C5 2 5 2 1.5625 3.1875 C-4.14748255 5.20649935 -8.99930533 8.6447545 -14 12 C-14.33 11.01 -14.66 10.02 -15 9 C-12 7 -12 7 -9 7 C-9 6.01 -9 5.02 -9 4 C-6.03 3.34 -3.06 2.68 0 2 C0 1.34 0 0.68 0 0 Z " fill="#E57E3E" transform="translate(117,297)"/>
<path d="M0 0 C4.21720399 4.21720399 4.12748367 11.59380109 4.1875 17.3125 C4.11930198 20.64371116 3.86281993 23.76442527 3 27 C1.13111829 23.83389451 0.8016592 21.65140074 0.9375 18 C1.06001033 11.94798953 0.58831097 6.01968184 0 0 Z " fill="#E88D57" transform="translate(376,330)"/>
<path d="M0 0 C0.66 1.32 1.32 2.64 2 4 C0.1875 6.5 0.1875 6.5 -2 9 C-2.99 9 -3.98 9 -5 9 C-5.33 10.32 -5.66 11.64 -6 13 C-6.66 13 -7.32 13 -8 13 C-8.66 14.65 -9.32 16.3 -10 18 C-10.66 18 -11.32 18 -12 18 C-10.18633597 13.87235084 -7.50853382 10.37940795 -4.875 6.75 C-4.17310547 5.77546875 -4.17310547 5.77546875 -3.45703125 4.78125 C-2.30725718 3.18564517 -1.15397434 1.59256975 0 0 Z " fill="#EFAC7A" transform="translate(12,251)"/>
<path d="M0 0 C0.66 0 1.32 0 2 0 C4 2 4 2 4.125 4.625 C4.08375 5.40875 4.0425 6.1925 4 7 C4.99 6.67 5.98 6.34 7 6 C7 7.98 7 9.96 7 12 C7.99 11.67 8.98 11.34 10 11 C10.33 12.65 10.66 14.3 11 16 C7.45470774 14.56188795 5.89221403 12.8685536 3.8125 9.6875 C3.30332031 8.92824219 2.79414062 8.16898437 2.26953125 7.38671875 C0.94530959 4.89718203 0.40790649 2.77671284 0 0 Z " fill="#E6793D" transform="translate(101,360)"/>
<path d="M0 0 C0 0.66 0 1.32 0 2 C1.32 2.33 2.64 2.66 4 3 C2.54550599 4.0055761 1.08627557 5.00430435 -0.375 6 C-1.59316406 6.8353125 -1.59316406 6.8353125 -2.8359375 7.6875 C-5 9 -5 9 -7 9 C-7 8.34 -7 7.68 -7 7 C-6.01 7 -5.02 7 -4 7 C-4 6.01 -4 5.02 -4 4 C-4.66 3.67 -5.32 3.34 -6 3 C-3.375 0 -3.375 0 0 0 Z " fill="#EA7735" transform="translate(160,374)"/>
<path d="M0 0 C0.66 0 1.32 0 2 0 C2 1.98 2 3.96 2 6 C0.68 6.33 -0.64 6.66 -2 7 C-2.66 9.31 -3.32 11.62 -4 14 C-5.32 13.67 -6.64 13.34 -8 13 C-7.59007812 12.39671875 -7.18015625 11.7934375 -6.7578125 11.171875 C-6.21898437 10.37265625 -5.68015625 9.5734375 -5.125 8.75 C-4.59132813 7.96109375 -4.05765625 7.1721875 -3.5078125 6.359375 C-2.18177985 4.28444308 -1.05071825 2.22385028 0 0 Z " fill="#E77C3F" transform="translate(387,369)"/>
<path d="M0 0 C3.39417765 3.12621626 5.6062718 5.56541027 7 10 C7.66 10 8.32 10 9 10 C9.66 11.65 10.32 13.3 11 15 C10.01 14.67 9.02 14.34 8 14 C8 13.34 8 12.68 8 12 C7.01 11.67 6.02 11.34 5 11 C5 10.34 5 9.68 5 9 C4.34 9 3.68 9 3 9 C3 8.34 3 7.68 3 7 C2.34 7 1.68 7 1 7 C0.67 4.69 0.34 2.38 0 0 Z " fill="#EBAE7B" transform="translate(465,251)"/>
<path d="M0 0 C0 0.66 0 1.32 0 2 C-3.25753924 3.93709638 -5.65609928 4.23715445 -9.421875 4.1953125 C-10.95908203 4.18564453 -10.95908203 4.18564453 -12.52734375 4.17578125 C-13.59082031 4.15902344 -14.65429688 4.14226562 -15.75 4.125 C-17.36841797 4.11146484 -17.36841797 4.11146484 -19.01953125 4.09765625 C-21.67991278 4.07411305 -24.33984336 4.04122799 -27 4 C-27 3.34 -27 2.68 -27 2 C-25.04707031 2.03480469 -25.04707031 2.03480469 -23.0546875 2.0703125 C-21.32813076 2.08907942 -19.60156779 2.10727863 -17.875 2.125 C-17.0190625 2.14175781 -16.163125 2.15851563 -15.28125 2.17578125 C-9.91250302 2.2170793 -5.07466047 0 0 0 Z " fill="#FADCC5" transform="translate(155,383)"/>
<path d="M0 0 C1.98 0 3.96 0 6 0 C6 0.66 6 1.32 6 2 C8.64 2.33 11.28 2.66 14 3 C14.103125 3.639375 14.20625 4.27875 14.3125 4.9375 C14.6528125 5.9584375 14.6528125 5.9584375 15 7 C15.99 7.33 16.98 7.66 18 8 C17.67 8.66 17.34 9.32 17 10 C16.35933594 9.60167969 15.71867187 9.20335937 15.05859375 8.79296875 C10.14423182 5.78283052 5.36809475 3.10055882 0 1 C0 0.67 0 0.34 0 0 Z " fill="#E48147" transform="translate(357,297)"/>
<path d="M0 0 C0.33 0 0.66 0 1 0 C1 6.27 1 12.54 1 19 C0.67 19 0.34 19 0 19 C0 13.72 0 8.44 0 3 C-0.66 3 -1.32 3 -2 3 C-2.2165625 3.928125 -2.2165625 3.928125 -2.4375 4.875 C-3 7 -3 7 -4 9 C-4.99 9 -5.98 9 -7 9 C-5.79618552 6.50638429 -4.54571278 4.31856917 -3 2 C-2.01 2 -1.02 2 0 2 C0 1.34 0 0.68 0 0 Z " fill="#E5995E" transform="translate(35,222)"/>
<path d="M0 0 C0.45375 0.495 0.9075 0.99 1.375 1.5 C2.87635519 3.22609337 2.87635519 3.22609337 5 3 C4.45773019 6.79588866 2.79872437 8.47211993 0 11 C-0.77675511 7.60169639 -1.19382275 4.48880949 -1 1 C-0.67 0.67 -0.34 0.34 0 0 Z " fill="#EE7835" transform="translate(371,361)"/>
<path d="M0 0 C0.66 0 1.32 0 2 0 C2.474375 0.639375 2.94875 1.27875 3.4375 1.9375 C4.9091365 4.28372963 4.9091365 4.28372963 8 5 C7.67 5.66 7.34 6.32 7 7 C6.01 7 5.02 7 4 7 C3.34 8.32 2.68 9.64 2 11 C1.34 10.67 0.68 10.34 0 10 C0.33 9.67 0.66 9.34 1 9 C1.14636054 5.63370749 1.07193479 3.21580438 0 0 Z " fill="#E77432" transform="translate(277,387)"/>
<path d="M0 0 C0.515625 0.680625 1.03125 1.36125 1.5625 2.0625 C4.50071413 5.60342473 7.70787019 8.79109819 11 12 C9.68 12.33 8.36 12.66 7 13 C6.731875 12.401875 6.46375 11.80375 6.1875 11.1875 C5.1106021 8.95672092 5.1106021 8.95672092 3.375 7.375 C2.92125 6.92125 2.4675 6.4675 2 6 C2 5.34 2 4.68 2 4 C1.34 4 0.68 4 0 4 C0 2.68 0 1.36 0 0 Z " fill="#E47F44" transform="translate(93,374)"/>
<path d="M0 0 C1 2 1 2 0.328125 4.4609375 C-0.02765625 5.42257812 -0.3834375 6.38421875 -0.75 7.375 C-1.09546875 8.33148438 -1.4409375 9.28796875 -1.796875 10.2734375 C-2.93916663 12.86213736 -4.20704407 14.82578332 -6 17 C-5.34331435 13.25141943 -4.3123267 9.82030057 -3 6.25 C-2.649375 5.28578125 -2.29875 4.3215625 -1.9375 3.328125 C-1 1 -1 1 0 0 Z " fill="#FEECD3" transform="translate(390,358)"/>
<path d="M0 0 C0.33 0 0.66 0 1 0 C1.66 6.27 2.32 12.54 3 19 C0 16 0 16 -0.29296875 12.20703125 C-0.2730801 10.74190067 -0.23737968 9.27691633 -0.1875 7.8125 C-0.17396484 7.06291016 -0.16042969 6.31332031 -0.14648438 5.54101562 C-0.11118539 3.69370233 -0.05737917 1.84675934 0 0 Z " fill="#E48046" transform="translate(85,344)"/>
<path d="M0 0 C1.125 3.75 1.125 3.75 0 6 C-0.66 6 -1.32 6 -2 6 C-2 6.66 -2 7.32 -2 8 C-3.375 9.625 -3.375 9.625 -5 11 C-5.66 11 -6.32 11 -7 11 C-5.22054913 6.95579349 -2.60470327 3.53921513 0 0 Z " fill="#EEB184" transform="translate(27,231)"/>
<path d="M0 0 C0.99 0.33 1.98 0.66 3 1 C3.125 7.625 3.125 7.625 2 11 C-2.455 11.495 -2.455 11.495 -7 12 C-7 11.67 -7 11.34 -7 11 C-6.05125 10.71125 -5.1025 10.4225 -4.125 10.125 C-0.94788422 9.23174891 -0.94788422 9.23174891 1 7 C1.20872719 4.21697081 1.25640898 2.51281795 0 0 Z " fill="#E17F44" transform="translate(178,315)"/>
<path d="M0 0 C2.375 0.25 2.375 0.25 5 1 C7.42363044 4.11609628 7.17392151 7.17372685 7 11 C6.01 11 5.02 11 4 11 C4 8.03 4 5.06 4 2 C2.68 1.67 1.36 1.34 0 1 C0 0.67 0 0.34 0 0 Z " fill="#E57B41" transform="translate(274,295)"/>
<path d="M0 0 C0.33 0 0.66 0 1 0 C1.02698189 1.62490954 1.04638757 3.24994633 1.0625 4.875 C1.07410156 5.77992188 1.08570313 6.68484375 1.09765625 7.6171875 C1 10 1 10 0 12 C-0.66 12 -1.32 12 -2 12 C-2.33 12.99 -2.66 13.98 -3 15 C-2.35812082 9.86496656 -1.31727753 5.0056546 0 0 Z " fill="#FEE7D4" transform="translate(379,352)"/>
<path d="M0 0 C0.6875 1.8125 0.6875 1.8125 1 4 C-0.3125 5.75 -0.3125 5.75 -2 7 C-2.66 7 -3.32 7 -4 7 C-4.66 8.32 -5.32 9.64 -6 11 C-6 8 -6 8 -5 5 C-4.34 5 -3.68 5 -3 5 C-2.690625 4.360625 -2.38125 3.72125 -2.0625 3.0625 C-1 1 -1 1 0 0 Z " fill="#E28147" transform="translate(109,320)"/>
<path d="M0 0 C-0.99 0.33 -1.98 0.66 -3 1 C-3 1.66 -3 2.32 -3 3 C-3.66 3 -4.32 3 -5 3 C-5 4.65 -5 6.3 -5 8 C-5.66 7.67 -6.32 7.34 -7 7 C-6.74438677 4.6568787 -6.40729228 2.32156597 -6 0 C-3.50907189 -1.24546405 -2.58919267 -0.7767578 0 0 Z " fill="#EA7334" transform="translate(208,296)"/>
<path d="M0 0 C0.66 0.33 1.32 0.66 2 1 C1.67 2.32 1.34 3.64 1 5 C-1.64 5.66 -4.28 6.32 -7 7 C-2.25 1.125 -2.25 1.125 0 0 Z " fill="#E8844B" transform="translate(117,313)"/>
<path d="M0 0 C2.66735273 2.48952921 4.55746343 4.63408134 6 8 C2.72921124 7.4360709 1.13628438 6.54319569 -1 4 C-1.33 3.34 -1.66 2.68 -2 2 C-1.34 2 -0.68 2 0 2 C0 1.34 0 0.68 0 0 Z " fill="#F1B07D" transform="translate(451,232)"/>
<path d="M0 0 C4.39158329 1.4638611 4.87947433 3.97831338 7 8 C3.76912579 7.44295272 1.97638863 6.66812465 0 4 C0 2.68 0 1.36 0 0 Z " fill="#EAB489" transform="translate(442,221)"/>
<path d="M0 0 C1.98 0 3.96 0 6 0 C6 0.66 6 1.32 6 2 C7.65 2 9.3 2 11 2 C11.33 2.66 11.66 3.32 12 4 C3.42857143 3.28571429 3.42857143 3.28571429 0 0 Z " fill="#E68248" transform="translate(118,381)"/>
<path d="M0 0 C4.95696581 1.23924145 7.11658466 2.78577758 10 7 C8.0625 6.6875 8.0625 6.6875 6 6 C5.67 5.01 5.34 4.02 5 3 C3.35 2.67 1.7 2.34 0 2 C0 1.34 0 0.68 0 0 Z " fill="#E37C3F" transform="translate(154,312)"/>
<path d="M0 0 C4.31392226 0.4793247 6.16569547 1.7457985 9 5 C8.67 5.66 8.34 6.32 8 7 C6.66382648 6.02471263 5.3311249 5.04466681 4 4.0625 C3.2575 3.51722656 2.515 2.97195313 1.75 2.41015625 C1.1725 1.94480469 0.595 1.47945313 0 1 C0 0.67 0 0.34 0 0 Z " fill="#E28147" transform="translate(161,300)"/>
<path d="M0 0 C2.66735273 2.48952921 4.55746343 4.63408134 6 8 C4.35 7.67 2.7 7.34 1 7 C0.67 4.69 0.34 2.38 0 0 Z " fill="#EDAC7A" transform="translate(457,240)"/>
<path d="M0 0 C0.66 0 1.32 0 2 0 C1.67 1.65 1.34 3.3 1 5 C0.34 5 -0.32 5 -1 5 C-1 5.66 -1 6.32 -1 7 C-1.66 7 -2.32 7 -3 7 C-3.33 5.68 -3.66 4.36 -4 3 C-3.01 3 -2.02 3 -1 3 C-0.67 2.01 -0.34 1.02 0 0 Z " fill="#EA9A6A" transform="translate(475,418)"/>
<path d="M0 0 C0.99 0.33 1.98 0.66 3 1 C1.515 4.465 1.515 4.465 0 8 C-2 5 -2 5 -1.6875 2.875 C-1 1 -1 1 0 0 Z " fill="#FFF3E4" transform="translate(100,328)"/>
<path d="M0 0 C0.66 0 1.32 0 2 0 C2 0.66 2 1.32 2 2 C4.64 1.67 7.28 1.34 10 1 C9.01 2.485 9.01 2.485 8 4 C5.69 3.67 3.38 3.34 1 3 C0.67 2.01 0.34 1.02 0 0 Z " fill="#FDDCC1" transform="translate(168,322)"/>
<path d="M0 0 C0 1.32 0 2.64 0 4 C-2.64 4 -5.28 4 -8 4 C-6.27302455 0.54604909 -3.70696841 0 0 0 Z " fill="#EA9464" transform="translate(168,390)"/>
<path d="M0 0 C-2.97 2.475 -2.97 2.475 -6 5 C-6 3.35 -6 1.7 -6 0 C-3 -1 -3 -1 0 0 Z " fill="#FEEAD8" transform="translate(114,316)"/>
<path d="M0 0 C1.98 0.495 1.98 0.495 4 1 C2.69593116 3.01920337 1.36176581 5.01924973 0 7 C-0.33 7 -0.66 7 -1 7 C-0.67 4.69 -0.34 2.38 0 0 Z " fill="#E17C46" transform="translate(93,315)"/>
<path d="M0 0 C0.66 0.33 1.32 0.66 2 1 C2 1.99 2 2.98 2 4 C2.99 4.33 3.98 4.66 5 5 C4.67 5.66 4.34 6.32 4 7 C1.96166576 5.7260411 -0.03852126 4.38938077 -2 3 C-2 2.34 -2 1.68 -2 1 C-1.34 0.67 -0.68 0.34 0 0 Z " fill="#E17838" transform="translate(370,300)"/>
<path d="M0 0 C0.625 1.8125 0.625 1.8125 1 4 C0.01 5.485 0.01 5.485 -1 7 C-1.99 7 -2.98 7 -4 7 C-2.79618552 4.50638429 -1.54571278 2.31856917 0 0 Z " fill="#EFBA89" transform="translate(32,224)"/>
<path d="M0 0 C0.33 0.66 0.66 1.32 1 2 C1.99 2.33 2.98 2.66 4 3 C3.67 3.66 3.34 4.32 3 5 C2.34 5 1.68 5 1 5 C0.34 5.66 -0.32 6.32 -1 7 C-1.625 5.1875 -1.625 5.1875 -2 3 C-1.34 2.01 -0.68 1.02 0 0 Z " fill="#BEBEC7" transform="translate(386,44)"/>
</svg>
