<?xml version="1.0" encoding="UTF-8"?>
<svg version="1.1" xmlns="http://www.w3.org/2000/svg" width="512" height="512">
<path d="M0 0 C2.35345247 2.14963067 4.66955568 4.33723071 6.97949219 6.53344727 C7.63175781 7.14446289 8.28402344 7.75547852 8.95605469 8.38500977 C14.11664272 13.35708317 18.5686792 18.89662555 22.97949219 24.53344727 C23.4077832 25.08000977 23.83607422 25.62657227 24.27734375 26.18969727 C46.95033038 55.38096023 60.81182088 89.20025626 66.97949219 125.53344727 C67.11081543 126.2972168 67.24213867 127.06098633 67.37744141 127.84790039 C76.09150059 181.37886705 61.30186202 239.56278755 29.97949219 283.53344727 C25.87645938 289.06291531 21.50440907 294.34587405 16.97949219 299.53344727 C16.47417969 300.11320312 15.96886719 300.69295898 15.44824219 301.2902832 C-18.10262769 339.40634306 -63.10221391 363.05966281 -113.02050781 371.53344727 C-113.78427734 371.66477051 -114.54804688 371.79609375 -115.33496094 371.93139648 C-169.20168032 380.70011131 -226.71560571 365.73204507 -271.02050781 334.53344727 C-276.5561627 330.43955058 -281.83347785 326.05789029 -287.02050781 321.53344727 C-287.8901416 320.77547852 -287.8901416 320.77547852 -288.77734375 320.00219727 C-326.8934036 286.45132739 -350.54672335 241.45174117 -359.02050781 191.53344727 C-359.21749268 190.38779297 -359.21749268 190.38779297 -359.41845703 189.21899414 C-368.18459333 135.36811476 -353.23141917 77.8194599 -322.02050781 33.53344727 C-314.6886044 23.64508295 -306.49638994 14.44821003 -298.02050781 5.53344727 C-297.10398437 4.55504883 -297.10398437 4.55504883 -296.16894531 3.55688477 C-291.19687191 -1.60370327 -285.65732952 -6.05573975 -280.02050781 -10.46655273 C-279.47394531 -10.89484375 -278.92738281 -11.32313477 -278.36425781 -11.7644043 C-249.17299485 -34.43739093 -215.35369881 -48.29888142 -179.02050781 -54.46655273 C-177.87485352 -54.6635376 -177.87485352 -54.6635376 -176.70605469 -54.86450195 C-112.74074367 -65.27711993 -47.45581582 -42.74629489 0 0 Z " fill="#95BF1B" transform="translate(402.0205078125,97.466552734375)"/>
<path d="M0 0 C0.78880554 0.00281982 1.57761108 0.00563965 2.39031982 0.00854492 C45.51301604 0.23951462 86.47601401 15.80403886 118.25 45.3125 C118.8490918 45.86776367 119.44818359 46.42302734 120.06542969 46.99511719 C133.97199101 60.04192201 145.04208649 74.63777422 154.25 91.3125 C154.76771973 92.2391748 154.76771973 92.2391748 155.29589844 93.18457031 C169.08391868 118.18425772 174.68462176 145.55665085 174.625 173.875 C174.62512085 174.7579071 174.6252417 175.64081421 174.62536621 176.55047607 C174.5994215 189.86222355 173.81440075 202.42365195 170.25 215.3125 C169.78207031 217.19001953 169.78207031 217.19001953 169.3046875 219.10546875 C168.39394471 222.55328073 167.3645814 225.92543284 166.25 229.3125 C165.65638672 231.13007813 165.65638672 231.13007813 165.05078125 232.984375 C159.20121336 250.03731587 150.46499551 266.20275295 139.25 280.3125 C138.82783203 280.84746094 138.40566406 281.38242187 137.97070312 281.93359375 C113.35546511 312.8044336 79.86540095 335.24591178 41.3125 344.625 C40.61447266 344.79676758 39.91644531 344.96853516 39.19726562 345.14550781 C34.74825258 346.16711723 30.77526797 346.47179887 26.25 346.3125 C12.66849714 316.11452158 6.5339027 274.9075281 18.00390625 243.3125 C22.4611483 232.58158497 28.12435136 224.47084743 36.25 216.3125 C36.71148437 216.66441406 37.17296875 217.01632812 37.6484375 217.37890625 C39.04565999 218.4364877 40.44858328 219.48655746 41.85546875 220.53125 C43.43177629 221.70383767 44.99731456 222.89106611 46.55078125 224.09375 C59.56105732 233.80354687 73.90936484 236.87848838 89.87890625 235.00390625 C92.06314329 234.56236996 94.13008696 233.99812243 96.25 233.3125 C97.04664063 233.06757813 97.84328125 232.82265625 98.6640625 232.5703125 C110.49998334 228.42957239 119.63874303 219.68632468 125.15771484 208.46728516 C132.72355618 191.82076497 133.93213421 172.69919124 127.99951172 155.26074219 C123.85357132 144.48399808 117.76169956 132.93016553 107.25 127.3125 C104.21603412 126.20738608 101.15599645 125.24015761 98.07421875 124.27734375 C94.50070457 123.05651664 92.0708482 121.81992063 89.25 119.3125 C89.25 117.9925 89.25 116.6725 89.25 115.3125 C91.29337146 113.69395833 93.2319124 112.35600817 95.4375 111 C103.63266893 105.72943086 103.63266893 105.72943086 107.7421875 97.16015625 C108.09713298 93.0072941 107.4066799 89.84492877 105.1875 86.3125 C96.51258144 76.14120854 82.35205551 71.42085347 70.16503906 67.00878906 C67.86370887 66.17204841 65.58548475 65.28577786 63.3125 64.375 C62.57128906 64.07851562 61.83007812 63.78203125 61.06640625 63.4765625 C58.62812601 62.46878509 56.20196011 61.43848474 53.77734375 60.3984375 C49.64398689 58.62612639 45.49858537 56.88600603 41.33935547 55.17529297 C39.72164431 54.50726408 38.11118502 53.8216594 36.50390625 53.12890625 C30.86987948 51.0299551 25.0762942 50.95021412 19.125 50.8125 C18.27687744 50.7815625 17.42875488 50.750625 16.55493164 50.71875 C9.1100133 50.71875 4.45437734 53.27214929 -0.88671875 58.33984375 C-1.39847656 58.97019531 -1.91023437 59.60054687 -2.4375 60.25 C-3.0046875 60.93191406 -3.571875 61.61382812 -4.15625 62.31640625 C-5.15886642 63.57213417 -6.159204 64.82968838 -7.15625 66.08984375 C-10.1929709 69.87648658 -12.21376364 71.98483188 -17.078125 72.61328125 C-20.7244349 72.20280484 -21.93212104 70.69707484 -24.5 68.125 C-30.07119986 62.89219895 -35.43981369 58.27697324 -43.3125 57.5625 C-47.01738102 57.8624473 -48.7970244 58.85087584 -51.515625 61.3515625 C-52.2072876 61.98513672 -52.8989502 62.61871094 -53.61157227 63.27148438 C-57.1075906 66.60824808 -60.54142715 69.99917935 -63.9375 73.4375 C-64.96520508 74.47197266 -64.96520508 74.47197266 -66.01367188 75.52734375 C-68.85045433 78.38323831 -71.68206271 81.24282073 -74.4921875 84.125 C-76.47754048 86.04852538 -78.42039655 87.62046326 -80.6875 89.1875 C-86.85173041 93.73507375 -91.47806422 98.84730004 -93.75 106.3125 C-94.09800908 109.03851517 -94.08297624 111.69409814 -94 114.4375 C-93.99226563 115.47197266 -93.99226563 115.47197266 -93.984375 116.52734375 C-93.92771036 120.23179478 -93.61912004 123.70985727 -92.75 127.3125 C-93.29269531 127.68761719 -93.83539063 128.06273437 -94.39453125 128.44921875 C-100.17994589 132.44457515 -100.17994589 132.44457515 -103.75 138.3125 C-105.14238522 147.08452691 -101.15216843 153.97869478 -96.75 161.3125 C-95.15960889 163.15355725 -95.15960889 163.15355725 -93.75 164.3125 C-95.36415859 168.55601126 -98.58310447 171.16065773 -101.8125 174.1875 C-111.67526831 183.75226644 -121.58683526 196.52210194 -122.25 210.75 C-121.94354069 218.21069894 -119.65052488 226.36990965 -114.40625 231.91796875 C-99.95252758 244.08773031 -82.29843487 248.51410984 -63.8125 248.625 C-62.65995728 248.63333862 -62.65995728 248.63333862 -61.48413086 248.6418457 C-54.17328184 248.54950312 -46.97655231 247.75105163 -40.875 243.4375 C-40.15570313 242.94507813 -39.43640625 242.45265625 -38.6953125 241.9453125 C-34.46445426 238.3941102 -33.08988633 234.8293494 -31.5625 229.5625 C-31.04623047 227.80679688 -31.04623047 227.80679688 -30.51953125 226.015625 C-30.26558594 225.12359375 -30.01164063 224.2315625 -29.75 223.3125 C-28.43 223.3125 -27.11 223.3125 -25.75 223.3125 C-20.34181556 232.06798305 -16.26968812 240.24591994 -13.75 250.3125 C-13.45222656 251.30636719 -13.15445313 252.30023438 -12.84765625 253.32421875 C-4.7928503 283.50190188 -13.67246825 318.04799973 -21.75 347.3125 C-51.32518717 347.18771018 -82.92708946 331.10911014 -105.75 313.3125 C-106.66394531 312.62027344 -107.57789063 311.92804688 -108.51953125 311.21484375 C-144.2174487 283.25234619 -167.26935542 241.55865062 -173.46737671 196.81057739 C-174.21747543 190.1805341 -174.19113276 183.51764986 -174.14111328 176.85351562 C-174.1250048 174.31325642 -174.14108999 171.77458724 -174.16015625 169.234375 C-174.17890692 154.90463181 -172.47987856 140.91664451 -168.4375 127.125 C-168.22585205 126.38781738 -168.0142041 125.65063477 -167.79614258 124.89111328 C-162.17954993 105.8939949 -153.31392166 88.34774693 -141.75 72.3125 C-141.33411621 71.73290527 -140.91823242 71.15331055 -140.48974609 70.55615234 C-117.26239094 38.61065846 -82.99969325 15.12630142 -44.75 5.3125 C-43.29787109 4.87164062 -43.29787109 4.87164062 -41.81640625 4.421875 C-28.23992426 0.30656694 -14.07493779 -0.07314564 0 0 Z " fill="#FEFEFD" transform="translate(255.75,81.6875)"/>
<path d="M0 0 C3.77847246 2.93881192 5.3629982 5.59268746 7 10 C6.03900391 11.03447266 6.03900391 11.03447266 5.05859375 12.08984375 C-0.25468804 17.8623958 -5.30458719 23.70317156 -10 30 C-12.375 29.6875 -12.375 29.6875 -15 29 C-18.64540443 23.53189336 -17.3279729 16.50079333 -16.5 10.1875 C-13.34106863 3.47477083 -7.76053729 -1.75710278 0 0 Z " fill="#FBFDF8" transform="translate(282,285)"/>
<path d="M0 0 C1.32 0 2.64 0 4 0 C5.59765625 1.8984375 5.59765625 1.8984375 7.0625 4.375 C8.94966311 7.52861474 9.87353884 8.91569256 13 11 C15.50896686 11.45601261 15.50896686 11.45601261 18.1875 11.625 C19.08855469 11.69976562 19.98960937 11.77453125 20.91796875 11.8515625 C21.60503906 11.90054687 22.29210937 11.94953125 23 12 C22.25 18.625 22.25 18.625 20 22 C13.16104798 21.24011644 8.14035715 13.01356044 4 8 C0 2.67836257 0 2.67836257 0 0 Z " fill="#F6F9EC" transform="translate(234,293)"/>
</svg>
